<?xml version="1.0" encoding="UTF-8" standalone="no"?>
<svg width="153px" height="40px" viewBox="0 0 153 40" version="1.1" xmlns="http://www.w3.org/2000/svg" xmlns:xlink="http://www.w3.org/1999/xlink">
    <!-- Generator: Sketch 41.2 (35397) - http://www.bohemiancoding.com/sketch -->
    <title>logo_solid_tagline</title>
    <desc>Created with Sketch.</desc>
    <defs>
        <path d="M20.361516,24.606414 L18.9271137,20.6880466 L13.3101828,20.6880466 C13.3101828,20.6880466 15.0634014,18.3192086 17.7721597,15.64355 C20.4809179,12.9678914 22.7140841,11.4737108 22.7140841,11.4737108 L28.1282799,24.606414 L20.361516,24.606414 Z" id="path-1"></path>
    </defs>
    <g id="Page-1" stroke="none" stroke-width="1" fill="none" fill-rule="evenodd">
        <g id="logo_solid_tagline">
            <g id="ACASYS-Capital">
                <g id="ACASYS-solid">
                    <path d="M45.1428571,7.15451895 C44.0816273,6.55976379 43.0495677,6.26239067 42.0466472,6.26239067 C40.9504318,6.26239067 39.9591881,6.54227125 39.0728863,7.10204082 C38.1865845,7.66181038 37.486883,8.43731283 36.9737609,9.42857143 C36.4606388,10.41983 36.2040816,11.5335215 36.2040816,12.7696793 C36.2040816,14.0058371 36.4606388,15.1195286 36.9737609,16.1107872 C37.486883,17.1020458 38.1865845,17.8833791 39.0728863,18.4548105 C39.9591881,19.0262419 40.9504318,19.3119534 42.0466472,19.3119534 C42.9795965,19.3119534 43.9766711,19.0553962 45.0379009,18.5422741 C46.0991307,18.029152 47.0495585,17.3294505 47.8892128,16.4431487 L52.0874636,20.9212828 C50.7580108,22.3673542 49.1545283,23.5218616 47.2769679,24.3848397 C45.3994075,25.2478177 43.5393678,25.6793003 41.696793,25.6793003 C39.2478012,25.6793003 37.0379107,25.12537 35.0670554,24.0174927 C33.0962001,22.9096155 31.551026,21.3761031 30.4314869,19.4169096 C29.3119478,17.4577162 28.7521866,15.2653183 28.7521866,12.8396501 C28.7521866,10.4606295 29.3236094,8.30904752 30.4664723,6.38483965 C31.6093352,4.46063178 33.1836634,2.9504428 35.1895044,1.85422741 C37.1953453,0.758012012 39.4460517,0.209912536 41.941691,0.209912536 C43.7842658,0.209912536 45.6268129,0.606410029 47.4693878,1.39941691 C49.3119626,2.19242379 50.8513058,3.25363767 52.0874636,4.58309038 L47.8892128,9.58600583 C47.1195297,8.55976163 46.2040869,7.74927411 45.1428571,7.15451895 Z M72.7988338,25.1895044 L71.3644315,21.271137 L61.4635569,21.271137 L59.9941691,25.1895044 L52.5072886,25.1895044 L62.96793,0.664723032 L70.4548105,0.664723032 L80.5655977,25.1895044 L72.7988338,25.1895044 Z M63.4927114,15.9533528 L69.4402332,15.9533528 L66.5014577,7.94169096 L63.4927114,15.9533528 Z M96.5189504,6.6122449 C94.9562604,6.07579907 93.6734744,5.80758017 92.6705539,5.80758017 C92.0408132,5.80758017 91.5451913,5.93002793 91.1836735,6.17492711 C90.8221556,6.4198263 90.6413994,6.77550787 90.6413994,7.24198251 C90.6413994,7.895047 90.9912501,8.40233055 91.6909621,8.7638484 C92.3906741,9.12536624 93.4985347,9.51603289 95.0145773,9.93586006 C96.7405334,10.4256584 98.1632597,10.9212803 99.2827988,11.4227405 C100.402338,11.9242008 101.376089,12.6880415 102.204082,13.7142857 C103.032074,14.7405299 103.446064,16.0932861 103.446064,17.7725948 C103.446064,19.4752272 102.997089,20.915446 102.099125,22.0932945 C101.201162,23.2711429 99.9883458,24.1516006 98.4606414,24.7346939 C96.932937,25.3177872 95.2244992,25.6093294 93.335277,25.6093294 C91.2361411,25.6093294 89.1312059,25.2536479 87.0204082,24.5422741 C84.9096104,23.8309002 83.0845558,22.857149 81.5451895,21.6209913 L84.2740525,16.0932945 C85.5102103,17.1661861 87.0203992,18.0699672 88.8046647,18.8046647 C90.5889302,19.5393623 92.1224426,19.9067055 93.4052478,19.9067055 C94.1982547,19.9067055 94.8163243,19.7551036 95.2594752,19.451895 C95.7026261,19.1486865 95.9241983,18.717204 95.9241983,18.1574344 C95.9241983,17.4810462 95.5626858,16.9621009 94.8396501,16.6005831 C94.1166145,16.2390652 92.9970921,15.8600603 91.4810496,15.4635569 C89.7784171,15.0204059 88.3673525,14.5597692 87.2478134,14.0816327 C86.1282743,13.6034962 85.1603539,12.8629788 84.3440233,11.8600583 C83.5276927,10.8571378 83.1195335,9.53936676 83.1195335,7.90670554 C83.1195335,6.32069178 83.5393544,4.9387814 84.3790087,3.76093294 C85.2186631,2.58308449 86.4023247,1.67930344 87.9300292,1.04956268 C89.4577336,0.419821924 91.2361415,0.104956268 93.2653061,0.104956268 C95.1078809,0.104956268 96.9387664,0.367344315 98.7580175,0.89212828 C100.577269,1.41691224 102.163259,2.11078286 103.516035,2.97376093 L100.822157,8.57142857 C99.5160285,7.80174542 98.0816405,7.14869073 96.5189504,6.6122449 Z M129.720117,0.664723032 L120.90379,17.4227405 L120.90379,25.1895044 L113.626822,25.1895044 L113.626822,17.5626822 L104.635569,0.664723032 L111.912536,0.664723032 L117.265306,10.6705539 L122.478134,0.664723032 L129.720117,0.664723032 Z M145.74344,6.6122449 C144.18075,6.07579907 142.897964,5.80758017 141.895044,5.80758017 C141.265303,5.80758017 140.769681,5.93002793 140.408163,6.17492711 C140.046645,6.4198263 139.865889,6.77550787 139.865889,7.24198251 C139.865889,7.895047 140.21574,8.40233055 140.915452,8.7638484 C141.615164,9.12536624 142.723024,9.51603289 144.239067,9.93586006 C145.965023,10.4256584 147.38775,10.9212803 148.507289,11.4227405 C149.626828,11.9242008 150.600579,12.6880415 151.428571,13.7142857 C152.256564,14.7405299 152.670554,16.0932861 152.670554,17.7725948 C152.670554,19.4752272 152.221579,20.915446 151.323615,22.0932945 C150.425651,23.2711429 149.212836,24.1516006 147.685131,24.7346939 C146.157427,25.3177872 144.448989,25.6093294 142.559767,25.6093294 C140.460631,25.6093294 138.355696,25.2536479 136.244898,24.5422741 C134.1341,23.8309002 132.309046,22.857149 130.769679,21.6209913 L133.498542,16.0932945 C134.7347,17.1661861 136.244889,18.0699672 138.029155,18.8046647 C139.81342,19.5393623 141.346932,19.9067055 142.629738,19.9067055 C143.422744,19.9067055 144.040814,19.7551036 144.483965,19.451895 C144.927116,19.1486865 145.148688,18.717204 145.148688,18.1574344 C145.148688,17.4810462 144.787176,16.9621009 144.06414,16.6005831 C143.341104,16.2390652 142.221582,15.8600603 140.705539,15.4635569 C139.002907,15.0204059 137.591842,14.5597692 136.472303,14.0816327 C135.352764,13.6034962 134.384844,12.8629788 133.568513,11.8600583 C132.752183,10.8571378 132.344023,9.53936676 132.344023,7.90670554 C132.344023,6.32069178 132.763844,4.9387814 133.603499,3.76093294 C134.443153,2.58308449 135.626815,1.67930344 137.154519,1.04956268 C138.682223,0.419821924 140.460631,0.104956268 142.489796,0.104956268 C144.332371,0.104956268 146.163256,0.367344315 147.982507,0.89212828 C149.801758,1.41691224 151.387748,2.11078286 152.740525,2.97376093 L150.046647,8.57142857 C148.740518,7.80174542 147.30613,7.14869073 145.74344,6.6122449 Z" id="CASYS" fill="#004EA0"></path>
                    <g id="Group-2" transform="translate(0.000000, 0.583090)">
                        <path d="M11.3055774,14.7372818 C4.80820898,18.5523388 0.0699708455,24.606414 0.0699708455,24.606414 L10.5306122,0.0816326531 L18.0174927,0.0816326531 L22.1376682,10.075553 C22.1376682,10.075553 17.8029459,10.9222248 11.3055774,14.7372818 Z M15.8912225,12.3395756 L14.0641399,7.35860058 L11.291653,14.7411531 C11.291653,14.7411531 12.9119323,13.7817593 13.7363991,13.3512797 C14.5608659,12.9208001 15.8912225,12.3395756 15.8912225,12.3395756 Z" id="A-Copy" fill="#F88417"></path>
                        <mask id="mask-2" fill="white">
                            <use xlink:href="#path-1"></use>
                        </mask>
                        <use id="A" fill="#004EA0" xlink:href="#path-1"></use>
                        <path d="M26.2697266,10.4281165 C20.447511,12.2464424 11.2298475,19.8194572 11.2298475,19.8194572 L14.525913,20.1937012 C17.6366945,16.1454472 21.6245936,12.8063222 26.2053661,10.4605707 C26.2273799,10.4492977 26.2488317,10.4384812 26.2697266,10.4281165 Z" id="Combined-Shape" fill="#054370" mask="url(#mask-2)" transform="translate(18.749787, 15.310909) rotate(-7.000000) translate(-18.749787, -15.310909) "></path>
                    </g>
                    <path d="M27.8363051,8.97196182 C20.4329547,11.2834531 13.9526371,15.5915337 8.99947652,21.2669076 C8.99063001,21.2770441 12.6250156,21.2690932 13.40874,21.2672611 C13.4100149,21.2655151 13.4112917,21.2637673 13.4125706,21.2620175 C17.1570353,16.1387338 22.0705149,11.9239512 27.7604839,9.01019507 C27.7864178,8.99691467 27.8116895,8.98417206 27.8363051,8.97196182 Z" id="Combined-Shape" fill="#F88417"></path>
                </g>
            </g>
            <path d="M9.48338192,34.8781341 C9.3403297,34.7039836 9.16462689,34.5702629 8.95626822,34.4769679 C8.74790955,34.383673 8.50690127,34.3370262 8.23323615,34.3370262 C7.95957103,34.3370262 7.70612362,34.3898926 7.4728863,34.4956268 C7.23964898,34.6013611 7.037513,34.7490758 6.8664723,34.9387755 C6.6954316,35.1284752 6.56171088,35.3539346 6.46530612,35.6151603 C6.36890136,35.8763861 6.32069971,36.1593765 6.32069971,36.4641399 C6.32069971,36.775123 6.36890136,37.0596683 6.46530612,37.3177843 C6.56171088,37.5759002 6.69387671,37.7998047 6.86180758,37.9895044 C7.02973845,38.1792041 7.22720975,38.3269188 7.45422741,38.4326531 C7.68124506,38.5383873 7.92536313,38.5912536 8.18658892,38.5912536 C8.48513269,38.5912536 8.74946435,38.529058 8.97959184,38.4046647 C9.20971932,38.2802715 9.39941616,38.1061236 9.54868805,37.8822157 L10.761516,38.787172 C10.4816313,39.1790107 10.1271158,39.4682206 9.69795918,39.6548105 C9.26880252,39.8414003 8.82721315,39.9346939 8.37317784,39.9346939 C7.85694591,39.9346939 7.38114892,39.8538395 6.94577259,39.6921283 C6.51039627,39.5304171 6.13411237,39.2987381 5.81690962,38.9970845 C5.49970687,38.695431 5.25247902,38.3300313 5.07521866,37.9008746 C4.8979583,37.471718 4.80932945,36.9928112 4.80932945,36.4641399 C4.80932945,35.9354687 4.8979583,35.4565619 5.07521866,35.0274052 C5.25247902,34.5982486 5.49970687,34.2328489 5.81690962,33.9311953 C6.13411237,33.6295417 6.51039627,33.3978628 6.94577259,33.2361516 C7.38114892,33.0744404 7.85694591,32.993586 8.37317784,32.993586 C8.5597677,32.993586 8.75412921,33.0106898 8.95626822,33.044898 C9.15840723,33.0791061 9.35743342,33.1335273 9.55335277,33.2081633 C9.74927212,33.2827992 9.93741406,33.3823123 10.1177843,33.5067055 C10.2981544,33.6310988 10.4598632,33.7834782 10.6029155,33.9638484 L9.48338192,34.8781341 Z M31.2209913,33.161516 L32.4244898,33.161516 L35.2979592,39.7667638 L33.6559767,39.7667638 L33.0868805,38.3673469 L30.5212828,38.3673469 L29.9708455,39.7667638 L28.3661808,39.7667638 L31.2209913,33.161516 Z M31.780758,35.0833819 L30.9784257,37.1358601 L32.5924198,37.1358601 L31.780758,35.0833819 Z M53.4530612,33.161516 L55.9067055,33.161516 C56.2487869,33.161516 56.5722045,33.1926139 56.8769679,33.2548105 C57.1817314,33.3170071 57.4476179,33.4242947 57.6746356,33.5766764 C57.9016532,33.7290581 58.0820207,33.9343039 58.2157434,34.1924198 C58.3494662,34.4505358 58.4163265,34.7755082 58.4163265,35.1673469 C58.4163265,35.552966 58.3541308,35.8763835 58.2297376,36.1376093 C58.1053444,36.3988351 57.9343062,36.6071907 57.7166181,36.7626822 C57.4989299,36.9181738 57.2408178,37.0285711 56.9422741,37.0938776 C56.6437303,37.159184 56.3203127,37.1918367 55.9720117,37.1918367 L54.9084548,37.1918367 L54.9084548,39.7667638 L53.4530612,39.7667638 L53.4530612,33.161516 Z M54.9084548,35.9603499 L55.8787172,35.9603499 C56.0093301,35.9603499 56.1352764,35.9479107 56.2565598,35.9230321 C56.3778432,35.8981534 56.4866856,35.8561713 56.5830904,35.7970845 C56.6794951,35.7379978 56.7572397,35.6571434 56.8163265,35.554519 C56.8754133,35.4518945 56.9049563,35.3228385 56.9049563,35.1673469 C56.9049563,34.9994161 56.866084,34.8641405 56.7883382,34.761516 C56.7105924,34.6588916 56.6110793,34.5795921 56.4897959,34.5236152 C56.3685125,34.4676382 56.2332369,34.4318757 56.083965,34.4163265 C55.9346931,34.4007774 55.7916431,34.3930029 55.6548105,34.3930029 L54.9084548,34.3930029 L54.9084548,35.9603499 Z M76.8046647,33.161516 L78.2600583,33.161516 L78.2600583,39.7667638 L76.8046647,39.7667638 L76.8046647,33.161516 Z M98.3556851,34.4489796 L96.471137,34.4489796 L96.471137,33.161516 L101.695627,33.161516 L101.695627,34.4489796 L99.8110787,34.4489796 L99.8110787,39.7667638 L98.3556851,39.7667638 L98.3556851,34.4489796 Z M121.240816,33.161516 L122.444315,33.161516 L125.317784,39.7667638 L123.675802,39.7667638 L123.106706,38.3673469 L120.541108,38.3673469 L119.990671,39.7667638 L118.386006,39.7667638 L121.240816,33.161516 Z M121.800583,35.0833819 L120.998251,37.1358601 L122.612245,37.1358601 L121.800583,35.0833819 Z M143.528863,33.161516 L144.984257,33.161516 L144.984257,38.4233236 L147.680466,38.4233236 L147.680466,39.7667638 L143.528863,39.7667638 L143.528863,33.161516 Z" id="CAPITAL" fill="#C1C1C1"></path>
        </g>
    </g>
</svg>