<svg width="40" height="40" viewBox="0 0 40 40" fill="none" xmlns="http://www.w3.org/2000/svg">
<circle cx="20" cy="20" r="19.5" fill="white" stroke="#D1D2CD"/>
<path d="M26.3002 13.71C26.1134 13.5227 25.8597 13.4175 25.5952 13.4175C25.3307 13.4175 25.077 13.5227 24.8902 13.71L20.0002 18.59L15.1102 13.7C14.9234 13.5127 14.6697 13.4075 14.4052 13.4075C14.1407 13.4075 13.887 13.5127 13.7002 13.7C13.3102 14.09 13.3102 14.72 13.7002 15.11L18.5902 20L13.7002 24.89C13.3102 25.28 13.3102 25.91 13.7002 26.3C14.0902 26.69 14.7202 26.69 15.1102 26.3L20.0002 21.41L24.8902 26.3C25.2802 26.69 25.9102 26.69 26.3002 26.3C26.6902 25.91 26.6902 25.28 26.3002 24.89L21.4102 20L26.3002 15.11C26.6802 14.73 26.6802 14.09 26.3002 13.71Z" fill="#7C7D7A"/>
</svg>
