<svg width="32" height="32" viewBox="0 0 32 32" fill="none" xmlns="http://www.w3.org/2000/svg">
<path fill-rule="evenodd" clip-rule="evenodd" d="M1 0C0.447715 0 0 0.447715 0 1V31C0 31.5523 0.447715 32 1 32H31C31.5523 32 32 31.5523 32 31V1C32 0.447715 31.5523 0 31 0H1ZM6.66667 16C6.66667 10.8474 10.8474 6.66667 16 6.66667C21.1424 6.66667 25.3333 10.8474 25.3333 16C25.3333 21.1526 21.1424 25.3333 16 25.3333C10.8474 25.3333 6.66667 21.1526 6.66667 16ZM23.9667 15.9291C23.9465 14.0564 23.2784 12.3254 22.1649 10.9689C21.9928 11.1916 20.6566 12.9125 17.7209 14.107C17.9031 14.4816 18.0853 14.8764 18.2473 15.261C18.2726 15.32 18.2961 15.379 18.3194 15.4373C18.3519 15.519 18.3839 15.5993 18.4194 15.6761C20.9998 15.3511 23.561 15.8501 23.9402 15.924C23.9508 15.926 23.9596 15.9278 23.9667 15.9291ZM21.2842 10.0477C19.8771 8.8026 18.0246 8.04338 16 8.04338C15.3521 8.04338 14.7245 8.11425 14.1273 8.25597L14.138 8.27056C14.3929 8.61798 15.8169 10.5591 17.1034 12.9226C19.9378 11.8597 21.1424 10.2502 21.2842 10.0477ZM15.5647 13.3984C14.2386 11.0499 12.8214 9.07592 12.6088 8.79248C10.3818 9.84526 8.71149 11.9002 8.19523 14.3702C8.20132 14.3702 8.20828 14.3702 8.21609 14.3702C8.66278 14.3706 11.9035 14.3734 15.5647 13.3984ZM8.02314 15.7672V16.0101C8.02314 18.055 8.8026 19.9277 10.068 21.3348C10.2502 21.0311 12.4367 17.4071 16.5466 16.081C16.5971 16.0659 16.65 16.0507 16.703 16.0356C16.7563 16.0204 16.8097 16.0051 16.8604 15.9899C16.658 15.5343 16.4454 15.0788 16.2126 14.6334C12.2343 15.8279 8.36732 15.7773 8.02314 15.7672ZM11.1106 22.2965C12.457 23.3492 14.1576 23.9769 16 23.9769C17.1034 23.9769 18.1562 23.7542 19.1179 23.3391C18.9964 22.6406 18.5409 20.201 17.4172 17.2957C17.4071 17.3008 17.3995 17.3033 17.3919 17.3059C17.3843 17.3084 17.3767 17.3109 17.3666 17.316C12.872 18.885 11.2524 22.0029 11.1106 22.2965ZM18.8952 16.9313C19.9378 19.7961 20.363 22.1244 20.444 22.6103C22.2357 21.4056 23.5112 19.4924 23.8554 17.2755C23.5821 17.1844 21.3955 16.5365 18.8952 16.9313Z" fill="#E84F8A"/>
</svg>
