<svg width="32" height="32" viewBox="0 0 32 32" fill="none" xmlns="http://www.w3.org/2000/svg">
<path fill-rule="evenodd" clip-rule="evenodd" d="M32 0H0V32H32V0ZM21.354 6.71831C22.9881 7.64165 24.282 8.89429 25.2358 10.4765C26.1891 12.0587 26.6662 13.7862 26.6667 15.6593C26.6667 17.9095 25.9883 19.9329 24.6321 21.7301C23.2757 23.5274 21.5234 24.7712 19.375 25.4613C19.125 25.5062 18.9422 25.4746 18.8265 25.3673C18.7106 25.2598 18.6527 25.1252 18.6527 24.9641V22.1272C18.6527 21.2577 18.412 20.6212 17.9307 20.218C18.4585 20.1642 18.9329 20.0833 19.3543 19.9757C19.7754 19.868 20.2108 19.6933 20.6599 19.4512C21.1089 19.2093 21.484 18.9113 21.7851 18.5571C22.086 18.2028 22.3312 17.7325 22.5209 17.1452C22.7104 16.558 22.8056 15.8836 22.8056 15.1217C22.8056 14.0371 22.4397 13.1137 21.7082 12.3517C22.051 11.5361 22.0139 10.6219 21.5974 9.60891C21.338 9.52814 20.9627 9.5775 20.472 9.75669C19.9815 9.93598 19.5554 10.1332 19.1945 10.3484L18.6667 10.671C17.8054 10.438 16.9164 10.3215 15.9998 10.3215C15.0832 10.3215 14.1944 10.438 13.3332 10.671C13.185 10.5726 12.9883 10.4512 12.7428 10.308C12.4974 10.1647 12.1109 9.99193 11.5831 9.79022C11.0554 9.58861 10.6572 9.528 10.3887 9.60877C9.98123 10.6217 9.94888 11.536 10.2915 12.3516C9.56005 13.1136 9.19424 14.0367 9.19424 15.1216C9.19424 15.8835 9.28914 16.5557 9.47891 17.1385C9.66858 17.721 9.91171 18.1918 10.208 18.5503C10.5042 18.9087 10.8768 19.2091 11.3261 19.4511C11.7751 19.6933 12.2103 19.8681 12.6315 19.9757C13.0529 20.0832 13.5273 20.1641 14.0551 20.2178C13.6848 20.5404 13.4579 21.002 13.3746 21.6028C13.1801 21.6924 12.9717 21.7598 12.7496 21.8047C12.5273 21.8493 12.2635 21.8717 11.958 21.8717C11.6525 21.8717 11.3492 21.7755 11.0484 21.5827C10.7473 21.3899 10.4906 21.1098 10.2775 20.7422C10.1016 20.4555 9.87708 20.2224 9.60398 20.0432C9.33074 19.8638 9.10166 19.7565 8.91647 19.7206L8.6388 19.6804C8.44427 19.6804 8.3102 19.7 8.23602 19.7405C8.16183 19.7809 8.13877 19.8325 8.1666 19.8954C8.19438 19.9582 8.23597 20.0209 8.29152 20.0836C8.34712 20.1463 8.40725 20.2003 8.47204 20.2451L8.56929 20.3125C8.77297 20.4021 8.97431 20.5723 9.17342 20.8234C9.37252 21.0742 9.51827 21.303 9.61084 21.509L9.74972 21.8185C9.87012 22.1589 10.0738 22.4346 10.3607 22.6453C10.6478 22.8559 10.9579 22.9904 11.2913 23.0483C11.6246 23.1068 11.9465 23.1383 12.2565 23.1425C12.5667 23.1468 12.8237 23.1315 13.0274 23.0954L13.3468 23.0419C13.3468 23.3822 13.3491 23.7811 13.3538 24.2384C13.3584 24.6956 13.3608 24.9376 13.3608 24.9644C13.3608 25.1256 13.3007 25.2602 13.1803 25.3677C13.06 25.475 12.8749 25.5066 12.6248 25.4617C10.4768 24.7715 8.72447 23.5278 7.36803 21.7305C6.01145 19.9333 5.33333 17.9098 5.33333 15.6596C5.33333 13.7864 5.81021 12.0587 6.7639 10.4765C7.71775 8.89429 9.01152 7.6416 10.6458 6.71831C12.2799 5.79505 14.0647 5.33333 15.9999 5.33333C17.9353 5.33333 19.7196 5.79491 21.354 6.71831Z" fill="black"/>
</svg>
