<svg width="32" height="32" viewBox="0 0 32 32" fill="none" xmlns="http://www.w3.org/2000/svg">
<path fill-rule="evenodd" clip-rule="evenodd" d="M1 0C0.447715 0 0 0.447715 0 1V31C0 31.5523 0.447715 32 1 32H31C31.5523 32 32 31.5523 32 31V1C32 0.447715 31.5523 0 31 0H1ZM11.2087 16C11.2087 13.3499 13.3474 11.2111 15.9975 11.2111C18.6476 11.2111 20.7863 13.3499 20.7863 16C20.7863 18.6501 18.6476 20.7889 15.9975 20.7889C13.3474 20.7889 11.2087 18.6501 11.2087 16ZM12.8851 16C12.8851 17.7138 14.2837 19.1124 15.9975 19.1124C17.7113 19.1124 19.1099 17.7138 19.1099 16C19.1099 14.2862 17.7113 12.8876 15.9975 12.8876C14.2837 12.8876 12.8851 14.2862 12.8851 16ZM19.864 11.0173C19.864 10.3985 20.3637 9.89888 20.9824 9.89888C21.1294 9.89869 21.2749 9.9275 21.4106 9.98364C21.5464 10.0398 21.6698 10.1222 21.7737 10.226C21.8776 10.3299 21.9599 10.4533 22.0161 10.5891C22.0722 10.7249 22.101 10.8704 22.1008 11.0173C22.1008 11.6384 21.6012 12.1357 20.9824 12.1357C20.3637 12.1357 19.864 11.6361 19.864 11.0173ZM25.3326 15.5285C25.3325 15.6855 25.3323 15.8427 25.3323 16C25.3323 16.1759 25.3326 16.3516 25.3328 16.5272C25.3345 17.6377 25.3361 18.7417 25.2716 19.8526C25.1992 21.3469 24.8607 22.6708 23.7656 23.7659C22.6729 24.8587 21.3467 25.1995 19.8524 25.2719C18.7229 25.3355 17.6006 25.3342 16.4712 25.333C16.3142 25.3328 16.1571 25.3326 15.9998 25.3326C15.8428 25.3326 15.686 25.3328 15.5293 25.333C14.4015 25.3342 13.2789 25.3355 12.1473 25.2719C10.653 25.1995 9.32911 24.861 8.23406 23.7659C7.14134 22.6732 6.80045 21.3469 6.72807 19.8526C6.66452 18.723 6.66576 17.5989 6.66701 16.4706C6.66719 16.3138 6.66736 16.157 6.66736 16C6.66736 15.843 6.66719 15.6862 6.66701 15.5294C6.66576 14.4016 6.66452 13.279 6.72807 12.1474C6.80045 10.6531 7.139 9.32916 8.23406 8.23409C9.32678 7.14135 10.653 6.80045 12.1473 6.72807C13.2768 6.66452 14.3991 6.66576 15.5284 6.66701C15.6854 6.66719 15.8425 6.66736 15.9998 6.66736C16.1568 6.66736 16.3137 6.66719 16.4704 6.66701C17.5982 6.66576 18.7208 6.66452 19.8524 6.72807C21.3467 6.80045 22.6705 7.13901 23.7656 8.23409C24.8583 9.32682 25.1992 10.6531 25.2716 12.1474C25.3351 13.2769 25.3339 14.3992 25.3326 15.5285ZM22.5725 22.5751C22.9017 22.2482 23.1072 21.9307 23.2776 21.5057C23.6973 20.4495 23.6749 18.1446 23.6604 16.6541C23.658 16.4115 23.6559 16.1905 23.6559 16C23.6559 15.8089 23.658 15.5871 23.6604 15.3435C23.6749 13.8525 23.6974 11.5477 23.2799 10.4919C23.1095 10.067 22.904 9.75178 22.5748 9.42256C22.2479 9.09333 21.9304 8.88786 21.5054 8.71741C20.4497 8.29994 18.1449 8.32241 16.6539 8.33696C16.4104 8.33933 16.1886 8.34149 15.9975 8.34149C15.8064 8.34149 15.5846 8.33933 15.341 8.33696C13.8501 8.32241 11.5453 8.29994 10.4895 8.71741C10.0646 8.88786 9.74939 9.09567 9.42017 9.42256C9.09095 9.74944 8.88549 10.067 8.71504 10.4919C8.29757 11.5477 8.32005 13.8525 8.33459 15.3435C8.33696 15.5871 8.33913 15.8089 8.33913 16C8.33913 16.1911 8.33696 16.4129 8.33459 16.6564C8.32005 18.147 8.29758 20.4503 8.71504 21.5081C8.88549 21.933 9.09095 22.2482 9.42017 22.5774C9.74705 22.9067 10.0646 23.1121 10.4895 23.2826C11.5453 23.7001 13.8501 23.6776 15.341 23.663C15.5846 23.6607 15.8064 23.6585 15.9975 23.6585C16.188 23.6585 16.409 23.6607 16.6516 23.663C18.142 23.6775 20.4469 23.6999 21.5031 23.2803C21.9281 23.1098 22.2433 22.9043 22.5725 22.5751Z" fill="#ED1376"/>
</svg>
