<svg width="32" height="32" viewBox="0 0 32 32" fill="none" xmlns="http://www.w3.org/2000/svg">
<path fill-rule="evenodd" clip-rule="evenodd" d="M1 0C0.447715 0 0 0.447715 0 1V31C0 31.5523 0.447715 32 1 32H31C31.5523 32 32 31.5523 32 31V1C32 0.447715 31.5523 0 31 0H1ZM6.66667 13.3333V25.3333H10.6667V13.3333H6.66667ZM6.66667 8.66667C6.66667 7.55556 7.55556 6.66667 8.66667 6.66667C9.77778 6.66667 10.6667 7.55556 10.6667 8.66667C10.6667 9.77778 9.77778 10.6667 8.66667 10.6667C7.55556 10.6667 6.66667 9.77778 6.66667 8.66667ZM21.3333 18.4203V25.3333H25.3333V17.8986C25.3333 15.4203 23.2 13.3333 20.6667 13.3333C19.4667 13.3333 18 14.1159 17.3333 15.1594V13.5942H13.3333V25.3333H17.3333V18.4203C17.3333 17.3768 18.2667 16.4638 19.3333 16.4638C20.4 16.4638 21.3333 17.3768 21.3333 18.4203Z" fill="#1178B3"/>
</svg>
