<svg width="32" height="32" viewBox="0 0 32 32" fill="none" xmlns="http://www.w3.org/2000/svg">
<path fill-rule="evenodd" clip-rule="evenodd" d="M1 0C0.447715 0 0 0.447715 0 1V31C0 31.5523 0.447715 32 1 32H31C31.5523 32 32 31.5523 32 31V1C32 0.447715 31.5523 0 31 0H1ZM13.8229 23.9849C19.7812 23.7098 23.7083 19.3071 23.8438 12.9784C24.5208 12.428 25.1979 11.8777 25.3333 11.1898C24.7917 11.465 24.1146 11.6025 23.4375 11.7401C24.1146 11.1898 24.6562 10.6395 24.9271 9.6764C24.7536 9.74691 24.5801 9.82645 24.402 9.90808C23.8852 10.145 23.33 10.3996 22.625 10.5019C20.5938 7.88783 15.4479 9.95156 16.3958 13.8039C12.875 13.5287 10.7083 11.8777 8.94792 9.95156C8 11.6025 8.8125 14.2166 10.0312 14.9045C9.48958 14.9045 8.94792 14.7669 8.54167 14.4918C8.67708 16.6931 9.76042 17.6562 11.3854 18.2065C11.2588 18.2065 11.119 18.2199 10.9701 18.2341C10.6415 18.2655 10.2686 18.3012 9.89583 18.2065C10.4375 19.7199 11.5208 20.683 13.2812 20.8206C12.0625 21.9212 9.76042 22.6091 8 22.334C9.625 23.297 11.3854 24.1225 13.8229 23.9849Z" fill="#1DB4DF"/>
</svg>
