<?xml version="1.0" encoding="UTF-8" standalone="no"?>
<svg width="19px" height="20px" viewBox="0 0 19 20" version="1.1" xmlns="http://www.w3.org/2000/svg" xmlns:xlink="http://www.w3.org/1999/xlink">
    <!-- Generator: Sketch 41.2 (35397) - http://www.bohemiancoding.com/sketch -->
    <title>icons/attachment</title>
    <desc>Created with Sketch.</desc>
    <defs></defs>
    <g id="Page-1" stroke="none" stroke-width="1" fill="none" fill-rule="evenodd">
        <g id="consultancy-(why_go_public)" transform="translate(-430.000000, -3741.000000)" fill="#BBBDBF">
            <g id="valuation-copy-3" transform="translate(389.000000, 3600.000000)">
                <g id="Group-3" transform="translate(41.000000, 134.000000)">
                    <g id="@Icons/Attachment" transform="translate(0.000000, 7.000000)">
                        <path d="M4.44428571,18.81 C3.20570809,18.81 2.17357556,18.3540046 1.34785714,17.442 C0.473567057,16.5553289 0.0242858357,15.5040061 1.66368438e-13,14.288 C-0.0242858357,13.0719939 0.485709064,11.8686726 1.53,10.678 L10.5642857,1.254 C11.5357191,0.2406616 12.5921372,-0.10133498 13.7335714,0.228 C14.2678598,0.38000076 14.7474979,0.67766445 15.1725,1.121 C15.5975021,1.56433555 15.8828564,2.06466388 16.0285714,2.622 C16.3442873,3.83800608 16.0164334,4.9526616 15.045,5.966 L6.41142857,14.972 C5.92571186,15.4786692 5.39143149,15.7699996 4.80857143,15.846 C4.22571137,15.8966669 3.74000194,15.7193354 3.35142857,15.314 C2.98714104,15.0099985 2.8232141,14.5413365 2.85964286,13.908 C2.89607161,13.2746635 3.1814259,12.6920027 3.71571429,12.16 L9.76285714,5.814 C10.0542872,5.48466502 10.3578556,5.48466502 10.6735714,5.814 C10.9892873,6.14333498 10.9892873,6.45999848 10.6735714,6.764 L4.62642857,13.072 C4.09214019,13.6293361 3.97071283,14.072665 4.26214286,14.402 C4.40785787,14.5033338 4.5535707,14.5413335 4.69928571,14.516 C4.99071574,14.4653331 5.26999866,14.3006681 5.53714286,14.022 L14.1707143,5.016 C14.7778602,4.3826635 14.9842867,3.69867034 14.79,2.964 C14.5957133,2.2039962 14.1342894,1.72266768 13.4057143,1.52 C12.7499967,1.34266578 12.094289,1.5706635 11.4385714,2.204 L2.44071429,11.59 C1.63928171,12.5526715 1.25071416,13.4583291 1.275,14.307 C1.29928584,15.1556709 1.61499696,15.8966635 2.22214286,16.53 C2.82928875,17.138003 3.53963879,17.4546665 4.35321429,17.48 C5.16678978,17.5053335 6.02285265,17.1126707 6.92142857,16.302 L15.9557143,6.916 C16.2471443,6.61199848 16.5507127,6.61199848 16.8664286,6.916 C17.1821444,7.19466806 17.1821444,7.49866502 16.8664286,7.828 L7.83214286,17.252 C6.83642359,18.2906719 5.70714917,18.81 4.44428571,18.81 L4.44428571,18.81 Z" id="Icons/Attachment"></path>
                    </g>
                </g>
            </g>
        </g>
    </g>
</svg>