<?xml version="1.0" encoding="UTF-8" standalone="no"?>
<svg width="60px" height="60px" viewBox="0 0 60 60" version="1.1" xmlns="http://www.w3.org/2000/svg" xmlns:xlink="http://www.w3.org/1999/xlink">
    <!-- Generator: Sketch 41.2 (35397) - http://www.bohemiancoding.com/sketch -->
    <title>icons/docu-dollars</title>
    <desc>Created with Sketch.</desc>
    <defs>
        <linearGradient x1="50.0001069%" y1="49.9999749%" x2="50.0001069%" y2="49.9999749%" id="linearGradient-1">
            <stop stop-color="#FFFFFF" offset="0%"></stop>
            <stop stop-color="#FFFFFF" offset="100%"></stop>
        </linearGradient>
    </defs>
    <g id="Page-1" stroke="none" stroke-width="1" fill="none" fill-rule="evenodd">
        <g id="home" transform="translate(-786.000000, -1612.000000)">
            <g id="why" transform="translate(0.000000, 1196.000000)">
                <g id="sales-&amp;-leasing" transform="translate(786.000000, 416.000000)">
                    <g id="docu-dollar" transform="translate(1.000000, 2.000000)">
                        <g id="document-dollar">
                            <g id="Group">
                                <g id="_x31_2">
                                    <g id="Group">
                                        <path d="M43.1583481,1.79688968 L10.3240371,1.79688968 L10.3249467,6.17019785 C10.3181251,9.12268051 7.92967914,11.5062425 4.97459115,11.5121474 L2.05656683,11.5121474 L2.05656683,45.5227037 C2.05656683,46.3128335 2.72621396,46.9785048 3.51501053,46.9805488 L28.9986652,46.9805488 C28.5216127,45.4607016 28.2639861,43.8418326 28.2639861,42.1607344 C28.2639861,37.7020313 30.0714649,33.6809771 32.9933547,30.7566565 C35.9202471,27.8352885 39.9479074,26.0338199 44.4139649,26.0338199 C44.4828624,26.0338199 44.5490312,26.0435858 44.6179287,26.0435858 L44.6179287,3.25655169 C44.6161096,2.46846593 43.947372,1.79893371 43.1583481,1.79688968 Z" id="Shape" fill="url(#linearGradient-1)"></path>
                                        <path d="M8.72263045,6.26621762 L8.72263045,3.46063934 L2.95411685,10.2417159 L4.74301954,10.2417159 C6.89714361,10.2361419 8.71208925,8.41530298 8.72263045,6.26621762 Z" id="Shape" fill="#FFFFFF"></path>
                                        <g id="Shape">
                                            <path d="M53.2452257,30.250169 C51.4063254,28.4151277 49.0906422,27.0778345 46.5047541,26.4015576 L46.5047541,4.93734401 C46.5003588,2.21781195 46.301883,0.0255041058 43.5818343,0.0148425534 L9.56935575,0.0148425534 C9.05406182,0.021950255 8.55153512,0.239989454 8.20451752,0.647218946 L0.593781026,9.58975281 C0.31290188,9.92026094 0.168904225,10.3312533 0.168904225,10.747472 L0.167229834,43.8413487 C0.173508802,46.5608808 0.371984618,48.7529796 3.09182404,48.7619688 L30.237833,48.7619688 C30.8146608,49.6571211 31.4747896,50.4933212 32.2253355,51.2438109 C34.9194312,53.9336579 38.6267429,55.592679 42.7375829,55.592679 C46.845702,55.592679 50.5502929,53.9336579 53.2452257,51.2438109 C55.9393214,48.5529187 57.5984339,44.8516876 57.5984339,40.7467809 C57.5984339,36.6431285 55.9393214,32.9418974 53.2452257,30.250169 Z M8.32291203,3.93071232 L8.32291203,6.34731799 C8.31383229,8.19844859 6.75051541,9.76684167 4.89451056,9.77164287 L3.35362597,9.77164287 L8.32291203,3.93071232 Z M29.9194402,35.0740034 L7.53351445,35.0740034 C6.72724651,35.0740034 6.07441271,35.7278773 6.07441271,36.5331865 C6.07441271,37.3364524 6.72724651,37.9885099 7.53351445,37.9885099 L28.8256254,37.9885099 C28.4701128,39.3178264 28.2621243,40.7100329 28.2621243,42.1546854 C28.2621243,43.8352321 28.5196664,45.4535699 28.9965624,46.9729185 L3.52172342,46.9729185 C2.73295834,46.9708751 2.06375823,46.3054222 2.06375823,45.5155517 L2.06375823,11.5163812 L4.98082516,11.5163812 C7.93471628,11.5104782 10.322606,9.12769823 10.3294252,6.17618426 L10.328516,1.80431096 L43.1520542,1.80431096 C43.9408192,1.80635431 44.6091101,2.47566686 44.6111559,3.26372109 L44.6111559,26.0430518 C44.542281,26.0430518 44.4761339,26.0332891 44.407259,26.0332891 C41.5783883,26.0332891 38.9275011,26.7609508 36.618488,28.0339615 L7.53351445,28.0339615 C6.72724651,28.0339615 6.07441271,28.6839757 6.07441271,29.4892849 C6.07441271,30.2945942 6.72724651,30.9466517 7.53351445,30.9466517 L32.8162766,30.9466517 C31.6447218,32.1565454 30.6693353,33.5487518 29.9194402,35.0740034 Z" fill="#59616A"></path>
                                            <path d="M8.78574061,17.4571423 L18.2269008,17.4571423 C18.969284,17.4571423 19.5703905,16.8567506 19.5703905,16.1171315 C19.5703905,15.3775124 18.969284,14.7752392 18.2269008,14.7752392 L8.78574061,14.7752392 C8.04335735,14.7752392 7.44225087,15.3773034 7.44225087,16.1171315 C7.44225087,16.8567506 8.04335735,17.4571423 8.78574061,17.4571423 Z" fill="#3881D8"></path>
                                            <path d="M8.78574061,23.94292 L37.8879177,23.94292 C38.630301,23.94292 39.2314075,23.3425283 39.2314075,22.6012368 C39.2314075,21.8616177 38.630301,21.2593445 37.8879177,21.2593445 L8.78574061,21.2593445 C8.04335735,21.2593445 7.44225087,21.8614087 7.44225087,22.6012368 C7.44225087,23.3425283 8.04335735,23.94292 8.78574061,23.94292 Z" fill="#59616A"></path>
                                        </g>
                                    </g>
                                    <path d="M43.9458656,47.5457156 L43.9458656,49.9596165 L41.6239034,49.9596165 L41.6239034,47.7378326 C40.0506034,47.6636198 38.5292096,47.2187613 37.6365497,46.7274937 L38.3377011,43.9849661 C39.3243362,44.5299596 40.7107322,45.0185096 42.2329632,45.0185096 C43.592569,45.0185096 44.5128563,44.481669 44.5128563,43.5658208 C44.5128563,42.6725499 43.7579151,42.1106234 41.9977112,41.5254923 C39.4869614,40.6840659 37.7742684,39.5100408 37.7742684,37.2364125 C37.7742684,35.1521835 39.2286866,33.5316276 41.7402736,33.0652369 L41.7402736,30.8426168 L44.0417245,30.8426168 L44.0417245,32.9036412 C45.5917922,32.9519318 46.6435193,33.3039721 47.4656454,33.675454 L46.7634476,36.3251633 C46.1721781,36.0454544 45.0693821,35.5042238 43.3868282,35.5042238 C41.8591554,35.5042238 41.3626983,36.181546 41.3626983,36.8398446 C41.3626983,37.589289 42.1890105,38.1039702 44.2033032,38.8320915 C46.9957694,39.8165082 48.0958445,41.1073922 48.0958445,43.2363579 C48.0960538,45.3228864 46.6435193,47.1027385 43.9458656,47.5457156 Z" id="Shape" fill="#FFFFFF"></path>
                                </g>
                            </g>
                        </g>
                    </g>
                </g>
            </g>
        </g>
    </g>
</svg>