<?xml version="1.0" encoding="UTF-8" standalone="no"?>
<svg width="60px" height="60px" viewBox="0 0 60 60" version="1.1" xmlns="http://www.w3.org/2000/svg" xmlns:xlink="http://www.w3.org/1999/xlink">
    <!-- Generator: Sketch 41.2 (35397) - http://www.bohemiancoding.com/sketch -->
    <title>icons/house</title>
    <desc>Created with Sketch.</desc>
    <defs></defs>
    <g id="Page-1" stroke="none" stroke-width="1" fill="none" fill-rule="evenodd">
        <g id="home" transform="translate(-266.000000, -1394.000000)">
            <g id="why" transform="translate(0.000000, 1196.000000)">
                <g id="quality-homes" transform="translate(266.000000, 198.000000)">
                    <g id="icons/house" transform="translate(3.000000, 2.000000)">
                        <path d="M47.0110899,27.650496 L52.0479924,27.650496 L26.0239962,0 L0,27.650496 L5.03690249,27.650496 L5.03690249,56.9274917 L47.0110899,56.9274917 L47.0110899,27.650496 Z" id="Combined-Shape" stroke="#4F5A69" stroke-width="2" stroke-linecap="round" stroke-linejoin="round" fill="#E7E7E7"></path>
                        <circle id="Oval-2" fill="#DCDCDC" cx="26.5" cy="17.5" r="3.5"></circle>
                        <rect id="Rectangle-5-Copy-8" fill="#3881D8" x="6.41657661" y="52.4962782" width="39.2148392" height="0.813249881"></rect>
                        <rect id="Rectangle-5-Copy-5" fill="#DCDCDC" x="6.41657661" y="49.2432787" width="39.2148392" height="0.813249881"></rect>
                        <path d="M6.41657661,32.9782811 L45.6314158,32.9782811 L45.6314158,33.791531 L6.41657661,33.791531 L6.41657661,32.9782811 Z M6.41657661,29.7252816 L45.6314158,29.7252816 L45.6314158,30.5385315 L6.41657661,30.5385315 L6.41657661,29.7252816 Z M6.41657661,26.4722821 L45.6314158,26.4722821 L45.6314158,27.2855319 L6.41657661,27.2855319 L6.41657661,26.4722821 Z M6.41657661,42.7372797 L45.6314158,42.7372797 L45.6314158,43.5505296 L6.41657661,43.5505296 L6.41657661,42.7372797 Z M6.41657661,39.4842802 L45.6314158,39.4842802 L45.6314158,40.29753 L6.41657661,40.29753 L6.41657661,39.4842802 Z M6.41657661,36.2312806 L45.6314158,36.2312806 L45.6314158,37.0445305 L6.41657661,37.0445305 L6.41657661,36.2312806 Z M6.41657661,45.9902792 L45.6314158,45.9902792 L45.6314158,46.8035291 L6.41657661,46.8035291 L6.41657661,45.9902792 Z" id="Combined-Shape" fill="#DCDCDC"></path>
                        <path d="M22.1540485,45.9403199 C22.1540485,45.3848743 22.5923552,44.9345967 23.1500593,44.9345967 L28.8979331,44.9345967 C29.4480147,44.9345967 29.8939439,45.3918352 29.8939439,45.9403199 L29.8939439,56.9734993 L22.1540485,56.9734993 L22.1540485,45.9403199 Z" id="Rectangle-2-Copy-2" fill="#4F5A69"></path>
                        <rect id="Rectangle-2" fill="#4F5A69" x="8.13249881" y="35.3999429" width="9.75899857" height="8.13249881"></rect>
                        <rect id="Rectangle-2-Copy" fill="#4F5A69" x="34.156495" y="35.3999429" width="9.75899857" height="8.13249881"></rect>
                    </g>
                </g>
            </g>
        </g>
    </g>
</svg>