<?xml version="1.0" encoding="UTF-8" standalone="no"?>
<svg width="60px" height="60px" viewBox="0 0 60 60" version="1.1" xmlns="http://www.w3.org/2000/svg" xmlns:xlink="http://www.w3.org/1999/xlink">
    <!-- Generator: Sketch 41.2 (35397) - http://www.bohemiancoding.com/sketch -->
    <title>icons/increase</title>
    <desc>Created with Sketch.</desc>
    <defs></defs>
    <g id="Page-1" stroke="none" stroke-width="1" fill="none" fill-rule="evenodd">
        <g id="home" transform="translate(-786.000000, -1493.000000)">
            <g id="why" transform="translate(0.000000, 1196.000000)">
                <g id="capital-appreciation" transform="translate(786.000000, 297.000000)">
                    <g id="icons/increase" transform="translate(1.000000, 5.000000)">
                        <polygon id="Fill-193" fill="#FFFFFF" points="2 52.8694581 12 52.8694581 12 38.9039409 2 38.9039409"></polygon>
                        <polygon id="Fill-194" fill="#FFFFFF" points="17 52.8694581 27 52.8694581 27 29.9261084 17 29.9261084"></polygon>
                        <polygon id="Fill-195" fill="#FFFFFF" points="32 52.8694581 42 52.8694581 42 21.9458128 32 21.9458128"></polygon>
                        <polygon id="Fill-196" fill="#3881D8" points="47 52.8694581 57 52.8694581 57 13.9655172 47 13.9655172"></polygon>
                        <path d="M0,52.8694581 L58,52.8694581" id="Stroke-851" stroke="#E06C0D" stroke-width="2" stroke-linecap="round"></path>
                        <path d="M7.0289,23.2726367 L45.9999,0.828055419" id="Stroke-852" stroke="#BDC3C7" stroke-width="2" stroke-linecap="round"></path>
                        <path d="M46,0.828055419 L37.438,9.97536945e-05" id="Stroke-853" stroke="#BDC3C7" stroke-width="2" stroke-linecap="round"></path>
                        <path d="M42.4378,8.63896921 L45.9998,0.828254926" id="Stroke-854" stroke="#BDC3C7" stroke-width="2" stroke-linecap="round"></path>
                        <polygon id="Stroke-3480" stroke="#59616A" stroke-width="2" stroke-linecap="round" points="2 52.8694581 12 52.8694581 12 38.9039409 2 38.9039409"></polygon>
                        <polygon id="Stroke-3481" stroke="#59616A" stroke-width="2" stroke-linecap="round" points="17 52.8694581 27 52.8694581 27 29.9261084 17 29.9261084"></polygon>
                        <polygon id="Stroke-3482" stroke="#59616A" stroke-width="2" stroke-linecap="round" points="32 52.8694581 42 52.8694581 42 21.9458128 32 21.9458128"></polygon>
                        <polygon id="Stroke-3483" stroke="#306CB4" stroke-width="2" stroke-linecap="round" points="47 52.8694581 57 52.8694581 57 13.9655172 47 13.9655172"></polygon>
                        <path d="M7.0289,23.2726367 L45.9999,0.828055419" id="Stroke-3484" stroke="#FFFFFF" stroke-width="2" stroke-linecap="round"></path>
                        <path d="M46,0.828055419 L37.438,9.97536945e-05" id="Stroke-3485" stroke="#FFFFFF" stroke-width="2" stroke-linecap="round"></path>
                        <path d="M42.4378,8.63896921 L45.9998,0.828254926" id="Stroke-3486" stroke="#FFFFFF" stroke-width="2" stroke-linecap="round"></path>
                        <path d="M0,52.8694581 L58,52.8694581" id="Stroke-3479" stroke="#59616A" stroke-width="2" stroke-linecap="round"></path>
                    </g>
                </g>
            </g>
        </g>
    </g>
</svg>