<?xml version="1.0" encoding="UTF-8" standalone="no"?>
<svg width="60px" height="60px" viewBox="0 0 60 60" version="1.1" xmlns="http://www.w3.org/2000/svg" xmlns:xlink="http://www.w3.org/1999/xlink">
    <!-- Generator: Sketch 41.2 (35397) - http://www.bohemiancoding.com/sketch -->
    <title>icons/line-graph</title>
    <desc>Created with Sketch.</desc>
    <defs></defs>
    <g id="Page-1" stroke="none" stroke-width="1" fill="none" fill-rule="evenodd">
        <g id="home" transform="translate(-266.000000, -1625.000000)">
            <g id="why" transform="translate(0.000000, 1196.000000)">
                <g id="proven-track-record" transform="translate(266.000000, 429.000000)">
                    <g id="icons/line-graph" transform="translate(3.000000, 3.000000)">
                        <polygon id="Fill-781" fill="#4F5A69" points="0 5.5862069 54 5.5862069 54 0 0 0"></polygon>
                        <polygon id="Fill-782" fill="#FFFFFF" points="1.86206897 44.6896552 52.137931 44.6896552 52.137931 5.5862069 1.86206897 5.5862069"></polygon>
                        <path d="M8.37931034,16.7586207 L16.7586207,16.7586207" id="Stroke-1047" stroke="#4F5A69" stroke-width="2" stroke-linecap="round"></path>
                        <path d="M8.37931034,13.9655172 L13.0344828,13.9655172" id="Stroke-1048" stroke="#4F5A69" stroke-width="2" stroke-linecap="round"></path>
                        <path d="M8.37931034,19.5517241 L16.7586207,19.5517241" id="Stroke-1049" stroke="#4F5A69" stroke-width="2" stroke-linecap="round"></path>
                        <path d="M10.2413793,37.2413793 L21.9724138,25.5103448" id="Stroke-1050" stroke="#3881D8" stroke-width="2" stroke-linecap="round"></path>
                        <path d="M21.9724138,25.5103448 L30.3517241,33.8896552" id="Stroke-1051" stroke="#3881D8" stroke-width="2" stroke-linecap="round"></path>
                        <path d="M30.3517241,33.8896552 L43.7586207,20.4827586" id="Stroke-1052" stroke="#3881D8" stroke-width="2" stroke-linecap="round"></path>
                        <path d="M43.7586207,20.4827586 L43.7586207,27" id="Stroke-1053" stroke="#3881D8" stroke-width="2" stroke-linecap="round"></path>
                        <path d="M43.7586207,20.4827586 L37.2413793,20.4827586" id="Stroke-1054" stroke="#3881D8" stroke-width="2" stroke-linecap="round"></path>
                        <polygon id="Stroke-3399" stroke="#4F5A69" stroke-width="2" points="0 5.5862069 54 5.5862069 54 0 0 0"></polygon>
                        <path d="M0,44.6896552 L54,44.6896552" id="Stroke-3400" stroke="#4F5A69" stroke-width="2" stroke-linecap="round"></path>
                        <path d="M27,44.6896552 L27,47.4827586" id="Stroke-3401" stroke="#4F5A69" stroke-width="2" stroke-linecap="round"></path>
                        <path d="M29.7931034,51.2068966 C29.7931034,52.7496207 28.5427241,54 27,54 C25.4572759,54 24.2068966,52.7496207 24.2068966,51.2068966 C24.2068966,49.6641724 25.4572759,48.4137931 27,48.4137931 C28.5427241,48.4137931 29.7931034,49.6641724 29.7931034,51.2068966 L29.7931034,51.2068966 Z" id="Stroke-3402" stroke="#4F5A69" stroke-width="2" stroke-linecap="round"></path>
                        <polygon id="Stroke-3403" stroke="#4F5A69" stroke-width="2" stroke-linecap="round" points="1.86206897 44.6896552 52.137931 44.6896552 52.137931 5.5862069 1.86206897 5.5862069"></polygon>
                    </g>
                </g>
            </g>
        </g>
    </g>
</svg>