<?xml version="1.0" encoding="UTF-8" standalone="no"?>
<svg width="20px" height="16px" viewBox="0 0 20 16" version="1.1" xmlns="http://www.w3.org/2000/svg" xmlns:xlink="http://www.w3.org/1999/xlink">
    <!-- Generator: Sketch 41.2 (35397) - http://www.bohemiancoding.com/sketch -->
    <title>icons/mail</title>
    <desc>Created with Sketch.</desc>
    <defs></defs>
    <g id="Page-1" stroke="none" stroke-width="1" fill="none" fill-rule="evenodd">
        <g id="consultancy-(why_go_public)" transform="translate(-390.000000, -4099.000000)" fill="#BBBDBF">
            <g id="valuation-copy-4" transform="translate(389.000000, 4004.000000)">
                <g id="Group-4" transform="translate(1.000000, 84.000000)">
                    <g id="@Icons/Mail" transform="translate(0.000000, 11.000000)">
                        <path d="M19.9500238,5.05932234 C19.616039,5.42707168 19.2375229,5.75024534 18.8367412,6.02884332 C16.9775593,7.2881062 15.1072446,8.55851299 13.292594,9.87349547 C12.3574366,10.5644185 11.1996227,11.4113563 9.98614472,11.4113563 L9.97501189,11.4113563 L9.96387907,11.4113563 C8.75040106,11.4113563 7.59258718,10.5644185 6.65742981,9.87349547 C4.84277921,8.54736907 2.97246448,7.2881062 1.1244154,6.02884332 C0.712500849,5.75024534 0.333984773,5.42707168 0,5.05932234 L0,13.9075942 C0,14.8882591 0.801563456,15.6906213 1.78125212,15.6906213 L18.1687717,15.6906213 C19.1484603,15.6906213 19.9500238,14.8882591 19.9500238,13.9075942 L19.9500238,5.05932234 Z" id="Path"></path>
                        <path d="M19.9500238,1.78301008 C19.9500238,0.802345183 19.1373275,-1.70042511e-05 18.1687717,-1.70042511e-05 L1.78125212,-1.70042511e-05 C0.590039766,-1.70042511e-05 0,0.936072214 0,2.0281763 C0,3.04227296 1.1244154,4.30153583 1.91484603,4.83644396 C3.64043403,6.03998724 5.38828767,7.24353052 7.11387567,8.45821772 C7.83750934,8.95969409 9.06212018,9.98493466 9.96387907,9.98493466 L9.97501189,9.98493466 L9.98614472,9.98493466 C10.8879036,9.98493466 12.1125144,8.95969409 12.8361481,8.45821772 C14.5617361,7.24353052 16.3095898,6.03998724 18.0463106,4.83644396 C19.0259992,4.15666488 19.9500238,3.03112904 19.9500238,1.78301008 L19.9500238,1.78301008 Z" id="Path"></path>
                    </g>
                </g>
            </g>
        </g>
    </g>
</svg>