<?xml version="1.0" encoding="UTF-8" standalone="no"?>
<svg width="60px" height="60px" viewBox="0 0 60 60" version="1.1" xmlns="http://www.w3.org/2000/svg" xmlns:xlink="http://www.w3.org/1999/xlink">
    <!-- Generator: Sketch 41.2 (35397) - http://www.bohemiancoding.com/sketch -->
    <title>icons/pie-chart</title>
    <desc>Created with Sketch.</desc>
    <defs></defs>
    <g id="Page-1" stroke="none" stroke-width="1" fill="none" fill-rule="evenodd">
        <g id="home" transform="translate(-266.000000, -1718.000000)">
            <g id="why" transform="translate(0.000000, 1196.000000)">
                <g id="annual-company-shares" transform="translate(266.000000, 522.000000)">
                    <g id="icons/pie-chart" transform="translate(1.000000, 1.000000)">
                        <path d="M58.2986069,14.4491571 C55.5350673,8.05484825 50.4044015,2.9241824 44.0091264,0.159676544 L33.155228,25.303297 L58.2986069,14.4491571 Z" id="Shape" fill="#3981D8"></path>
                        <g id="Group" transform="translate(0.000000, 3.381954)">
                            <path d="M27.5423921,27.5351451 L38.3953242,2.39055837 C35.0679646,0.953711039 31.4002354,0.151463227 27.5423921,0.151463227 C12.4197431,0.151463227 0.159676544,12.412496 0.159676544,27.5351451 C0.159676544,42.6577942 12.4195015,54.918827 27.5423921,54.918827 C33.968588,54.918827 39.8746875,52.6983326 44.5468571,48.9909862 L27.5423921,27.5351451 Z" id="Shape" fill="#FFFFFF"></path>
                            <path d="M54.9251077,27.5351451 C54.9251077,23.6773018 54.125034,20.0093311 52.6869789,16.6812467 L27.5423921,27.5351451 L44.5468571,48.9909862 C50.8679707,43.974099 54.9251077,36.2303905 54.9251077,27.5351451 Z" id="Shape" fill="#4F5A69"></path>
                        </g>
                    </g>
                </g>
            </g>
        </g>
    </g>
</svg>