<?xml version="1.0" encoding="UTF-8" standalone="no"?>
<svg width="60px" height="60px" viewBox="0 0 60 60" version="1.1" xmlns="http://www.w3.org/2000/svg" xmlns:xlink="http://www.w3.org/1999/xlink">
    <!-- Generator: Sketch 41.2 (35397) - http://www.bohemiancoding.com/sketch -->
    <title>icons/time-money</title>
    <desc>Created with Sketch.</desc>
    <defs></defs>
    <g id="Page-1" stroke="none" stroke-width="1" fill="none" fill-rule="evenodd">
        <g id="home" transform="translate(-786.000000, -1377.000000)">
            <g id="why" transform="translate(0.000000, 1196.000000)">
                <g id="annual-rental-yield" transform="translate(786.000000, 181.000000)">
                    <g id="icons/time-money" transform="translate(1.000000, 1.000000)">
                        <path d="M28.0333333,55.0677966 C13.0850667,55.0677966 0.966666667,42.9564793 0.966666667,28.0169492 C0.966666667,13.0774191 13.0850667,0.966101695 28.0333333,0.966101695 C42.9816,0.966101695 55.1,13.0774191 55.1,28.0169492 C55.1,42.9564793 42.9816,55.0677966 28.0333333,55.0677966 Z" id="Fill-2704" fill="#FFFFFF"></path>
                        <ellipse id="Oval" fill="#59616A" cx="46.8833333" cy="45.8898305" rx="11.1166667" ry="11.1101695"></ellipse>
                        <path d="M48.1531204,50.9700599 L48.1531204,52.7513894 L46.4406733,52.7513894 L46.4406733,51.1118319 C45.2803646,51.0570669 44.1583367,50.7287851 43.5,50.366256 L44.0170991,48.3424175 C44.7447425,48.7445935 45.7672096,49.1051172 46.889855,49.1051172 C47.8925642,49.1051172 48.5712761,48.7089577 48.5712761,48.0331107 C48.5712761,47.3739247 48.014507,46.959253 46.7163566,46.5274576 C44.8646786,45.90653 43.6015675,45.0401624 43.6015675,43.3623465 C43.6015675,41.8242972 44.6742009,40.6284137 46.5264963,40.2842424 L46.5264963,38.6440678 L48.2238164,38.6440678 L48.2238164,40.1649934 C49.3669914,40.2006292 50.1426401,40.4604161 50.7489581,40.7345499 L50.2310872,42.6898934 C49.7950259,42.4834832 48.9817139,42.084084 47.7408303,42.084084 C46.6141717,42.084084 46.2480346,42.5839115 46.2480346,43.0697006 C46.2480346,43.6227504 46.8574398,44.0025576 48.3429807,44.5398721 C50.4024245,45.2663189 51.2137299,46.2189222 51.2137299,47.7899848 C51.2138842,49.329731 50.1426401,50.6431665 48.1531204,50.9700599 Z" id="Shape" fill="#FFFFFF"></path>
                        <path d="M28.0333333,30.8608527 C26.9303333,30.8608527 26.0333333,29.964377 26.0333333,28.8620216 C26.0333333,27.7596663 26.9303333,26.8631905 28.0333333,26.8631905 C29.1363333,26.8631905 30.0333333,27.7596663 30.0333333,28.8620216 C30.0333333,29.964377 29.1363333,30.8608527 28.0333333,30.8608527 M29.0333333,25.0062764 L29.0333333,14.870204 C29.0333333,14.3175272 28.5853333,13.8707884 28.0333333,13.8707884 C27.4813333,13.8707884 27.0333333,14.3175272 27.0333333,14.870204 L27.0333333,25.0062764 C25.6343333,25.3700637 24.5393333,26.4644237 24.1753333,27.8626061 L17.0333333,27.8626061 C16.4813333,27.8626061 16.0333333,28.3093448 16.0333333,28.8620216 C16.0333333,29.4146984 16.4813333,29.8614372 17.0333333,29.8614372 L24.1753333,29.8614372 C24.6223333,31.5804319 26.1753333,32.8596838 28.0333333,32.8596838 C30.2393333,32.8596838 32.0333333,31.0667323 32.0333333,28.8620216 C32.0333333,27.0041081 30.7533333,25.4530152 29.0333333,25.0062764" id="Fill-2707" fill="#3881D8"></path>
                        <path d="M28.0333333,5.90857802 L28.0333333,6.90799357" id="Stroke-2708" stroke="#1B3C66" stroke-width="2" stroke-linecap="round"></path>
                        <path d="M28.0333333,48.8834465 L28.0333333,49.8828621" id="Stroke-2709" stroke="#1B3C66" stroke-width="2" stroke-linecap="round"></path>
                        <path d="M50.0333333,27.89572 L49.0333333,27.89572" id="Stroke-2710" stroke="#1B3C66" stroke-width="2" stroke-linecap="round"></path>
                        <path d="M7.03333333,27.89572 L6.03333333,27.89572" id="Stroke-2711" stroke="#1B3C66" stroke-width="2" stroke-linecap="round"></path>
                        <path d="M43.5896333,12.348512 L42.8826333,13.0550988" id="Stroke-2712" stroke="#1B3C66" stroke-width="2" stroke-linecap="round"></path>
                        <path d="M13.1841333,42.7362414 L12.4771333,43.4428282" id="Stroke-2713" stroke="#1B3C66" stroke-width="2" stroke-linecap="round"></path>
                        <path d="M13.1841333,13.0550988 L12.4771333,12.348512" id="Stroke-2714" stroke="#1B3C66" stroke-width="2" stroke-linecap="round"></path>
                        <path d="M52.9689056,37.2392612 C54.0331466,34.366299 54.6161417,31.2597253 54.6161417,28.0166493 C54.6161417,13.3440207 42.7151591,1.44907759 28.0330333,1.44907759 C13.3518243,1.44907759 1.449925,13.3440207 1.449925,28.0166493 C1.449925,42.690194 13.3518243,54.5842211 28.0330333,54.5842211 C31.2780059,54.5842211 34.3863962,54.0015667 37.2610386,52.9379477" id="Stroke-3597" stroke="#59616A" stroke-width="2" stroke-linecap="square" stroke-linejoin="round" transform="translate(28.033033, 28.016649) rotate(-2.000000) translate(-28.033033, -28.016649) "></path>
                    </g>
                </g>
            </g>
        </g>
    </g>
</svg>