<?xml version="1.0" encoding="UTF-8" standalone="no"?>
<svg width="60px" height="60px" viewBox="0 0 60 60" version="1.1" xmlns="http://www.w3.org/2000/svg" xmlns:xlink="http://www.w3.org/1999/xlink">
    <!-- Generator: Sketch 41.2 (35397) - http://www.bohemiancoding.com/sketch -->
    <title>icons/wallet</title>
    <desc>Created with Sketch.</desc>
    <defs></defs>
    <g id="Page-1" stroke="none" stroke-width="1" fill="none" fill-rule="evenodd">
        <g id="home" transform="translate(-266.000000, -1505.000000)">
            <g id="why" transform="translate(0.000000, 1196.000000)">
                <g id="affordable-prices" transform="translate(266.000000, 310.000000)">
                    <g id="icons/affordable" transform="translate(1.000000, 0.000000)">
                        <g id="cash-money-wallet">
                            <g id="_x32_2" transform="translate(0.855432, 0.143427)">
                                <g id="Group" transform="translate(0.000000, 13.915027)">
                                    <path d="M55.0530938,13.2963787 L53.5000855,13.2963787 L53.5000855,6.52432278 C53.4943827,2.94565155 50.5902481,0.0435700029 47.0124893,0.0346735101 L6.63838038,0.0346735101 C3.05970915,0.0435700029 0.156715141,2.94565155 0.149871685,6.52432278 L0.149871685,36.9646992 C0.156715141,40.5433704 3.05970915,43.4484175 6.63838038,43.4532079 L47.0124893,43.4532079 C50.5902481,43.4484175 53.4941545,40.5433704 53.5000855,36.9646992 L53.5000855,30.3746792 L53.2877103,29.9116054 L55.0530938,29.9116054 L55.0530938,13.2963787 Z" id="Shape" fill="#4F5A69"></path>
                                    <g transform="translate(3.421728, 3.193613)" id="Shape">
                                        <path d="M44.7917879,26.7182207 L46.7132022,26.7182207 L46.7132022,33.7710864 C46.7113772,35.4789849 45.2968349,36.8905617 43.5907613,36.8935272 L3.21665241,36.8935272 C1.51057884,36.8905617 0.0942115768,35.4789849 0.0921585401,33.7710864 L0.0921585401,3.33071001 C0.0942115768,1.62372398 1.51057884,0.209181637 3.21665241,0.206216139 L43.5907613,0.206216139 C45.2968349,0.209181637 46.7111491,1.62372398 46.7132022,3.33071001 L46.7132022,10.1027659 L35.4449957,10.1027659 C30.857371,10.1057314 27.1393214,13.821728 27.1372683,18.4123182 C27.1393214,22.999943 30.857371,26.7159395 35.4449957,26.7179926 L43.8305104,26.7179926" fill="#E7E7E7"></path>
                                        <path d="M35.4449957,23.3548902 L48.2671229,23.3548902 L48.2671229,13.4670088 L35.4449957,13.4670088 C32.7153693,13.4738523 30.5083547,15.6808668 30.5015113,18.4123182 C30.5083547,21.1410322 32.7153693,23.3480468 35.4449957,23.3548902 Z" fill="#FFFFFF"></path>
                                    </g>
                                </g>
                                <path d="M6.39863131,33.4428286 L5.4394069,33.4428286 L5.4394069,30.0815512 L6.39863131,30.0815512 L6.39863131,33.4428286 Z M6.39863131,34.8845167 L5.4394069,34.8845167 L5.4394069,38.2496721 L6.39863131,38.2496721 L6.39863131,34.8845167 Z M6.39863131,39.6895352 L5.4394069,39.6895352 L5.4394069,43.0576561 L6.39863131,43.0576561 L6.39863131,39.6895352 Z M6.39863131,44.4984317 L5.4394069,44.4984317 L5.4394069,47.8615341 L6.39863131,47.8615341 L6.39863131,44.4984317 Z M6.39863131,49.3570573 L6.39863131,49.3025378 L5.4394069,49.3025378 L5.4394069,49.3570573 C5.4394069,50.7549472 6.4465355,51.9160536 7.77211292,52.184089 L7.96327345,51.241517 C7.07225549,51.0631309 6.39475335,50.277274 6.39863131,49.3570573 Z M45.3007129,51.2805247 L42.9483889,51.2805247 L42.9483889,52.2418021 L45.3007129,52.2418021 C45.7179356,52.2418021 46.1185058,52.1530653 46.4782435,51.994069 L46.0920445,51.1137725 C45.8486456,51.2189336 45.5815227,51.2805247 45.3007129,51.2805247 Z M47.2524665,49.3570573 C47.2524665,49.7304819 47.1452524,50.0765326 46.9579698,50.3689763 L47.7691474,50.8865697 C48.0469917,50.4440262 48.2137439,49.9166239 48.2137439,49.3570573 L48.2137439,47.3352723 L47.2526946,47.3352723 L47.2526946,49.3570573 L47.2524665,49.3570573 Z M10.8555461,19.0775021 L8.35015683,19.0775021 C7.99520958,19.0775021 7.65691474,19.1418306 7.34211577,19.2568007 L7.67242658,20.1594525 L7.67242658,20.1585401 C7.88502994,20.0816652 8.1110921,20.039692 8.34992871,20.039692 L10.8553179,20.039692 L10.8553179,19.0775021 L10.8555461,19.0775021 Z M33.3353864,52.241574 L36.7014542,52.241574 L36.7014542,51.2802965 L33.3353864,51.2802965 L33.3353864,52.241574 Z M6.39863131,25.2726547 L5.4394069,25.2726547 L5.4394069,28.6368976 L6.39863131,28.6368976 L6.39863131,25.2726547 Z M38.1424579,52.241574 L41.5055603,52.241574 L41.5055603,51.2802965 L38.1424579,51.2802965 L38.1424579,52.241574 Z M6.39863131,21.9629313 C6.39863131,21.5457086 6.53413174,21.1645281 6.7631594,20.8476761 L5.98619903,20.2803536 C5.64311377,20.7520958 5.4364414,21.3369832 5.43917879,21.9629313 L5.43917879,23.831651 L6.39840319,23.831651 L6.39840319,21.9629313 L6.39863131,21.9629313 Z M39.6934132,19.0775021 L36.3291702,19.0775021 L36.3291702,20.039692 L39.6934132,20.039692 L39.6934132,19.0775021 Z M30.0794981,19.0775021 L26.7173082,19.0775021 L26.7173082,20.039692 L30.0794981,20.039692 L30.0794981,19.0775021 Z M28.530596,52.241574 L31.8948389,52.241574 L31.8948389,51.2802965 L28.530596,51.2802965 L28.530596,52.241574 L28.530596,52.241574 Z M34.8883946,19.0775021 L31.5202737,19.0775021 L31.5202737,20.039692 L34.8883946,20.039692 L34.8883946,19.0775021 Z M47.2524665,26.9755346 L48.2135158,26.9755346 L48.2135158,23.6103792 L47.2524665,23.6103792 L47.2524665,26.9755346 Z M46.0601084,19.1769604 L45.8075848,20.1060736 L45.8094098,20.1060736 C46.6381523,20.3312233 47.2552039,21.0837753 47.2522384,21.9631594 L47.2522384,22.1707442 L48.2132877,22.1707442 L48.2132877,21.9631594 C48.2114628,20.6273168 47.295124,19.5093242 46.0601084,19.1769604 Z M44.4975192,19.0775021 L41.1362418,19.0775021 L41.1362418,20.039692 L44.4975192,20.039692 L44.4975192,19.0775021 Z M14.1114343,52.241574 L17.4756772,52.241574 L17.4756772,51.2802965 L14.1114343,51.2802965 L14.1114343,52.241574 Z M20.467408,19.0775021 L17.1031651,19.0775021 L17.1031651,20.039692 L20.467408,20.039692 L20.467408,19.0775021 Z M9.30550328,52.241574 L12.6697462,52.241574 L12.6697462,51.2802965 L9.30550328,51.2802965 L9.30550328,52.241574 Z M15.6617052,19.0775021 L12.2954092,19.0775021 L12.2954092,20.039692 L15.661477,20.039692 L15.661477,19.0775021 L15.6617052,19.0775021 Z M25.2744796,19.0775021 L21.9084117,19.0775021 L21.9084117,20.039692 L25.2744796,20.039692 L25.2744796,19.0775021 Z M18.9164528,52.241574 L22.2825207,52.241574 L22.2825207,51.2802965 L18.9164528,51.2802965 L18.9164528,52.241574 Z M23.7235244,52.241574 L27.0868549,52.241574 L27.0868549,51.2802965 L23.7235244,51.2802965 L23.7235244,52.241574 Z M48.2135158,43.8268606 L48.2135158,45.8944967 L47.2524665,45.8944967 L47.2524665,43.8268606 L48.2135158,43.8268606 Z" id="Shape" fill="#3881D8"></path>
                                <path d="M39.459367,32.5848874 C37.8392928,32.5848874 36.5242087,33.899059 36.5242087,35.5191332 C36.5242087,37.1403479 37.8392928,38.4542914 39.459367,38.4542914 C41.0796692,38.4542914 42.3965783,37.1401198 42.3965783,35.5191332 C42.3965783,33.899059 41.0796692,32.5848874 39.459367,32.5848874 Z" id="Shape" fill="#3881D8"></path>
                                <path d="M36.9813516,1.39378386 C36.550442,0.34582264 35.338694,-0.157171372 34.2907328,0.273738238 L7.10921015,11.4776162 C6.7631594,11.6208725 6.48440262,11.8540063 6.2708868,12.132763 L41.4090676,12.132763 L36.9813516,1.39378386 Z" id="Shape" fill="#4F5A69"></path>
                            </g>
                        </g>
                    </g>
                </g>
            </g>
        </g>
    </g>
</svg>