<?xml version="1.0" encoding="UTF-8"?>
<svg width="301px" height="400px" viewBox="0 0 301 349" version="1.1" xmlns="http://www.w3.org/2000/svg" xmlns:xlink="http://www.w3.org/1999/xlink">
    <title>hero image</title>
    <style>
      .balloon {
        animation: float 6s ease-in-out infinite;
      }

      @keyframes float {
        0% {
          transform: translate(120px,0px);
        }
        50% {
          transform: translate(120px,-20px);
        }
        100% {
          transform: translate(120px,0px);
        }
      }
    </style>

    <defs>
        <ellipse id="path-1" cx="160" cy="155.442315" rx="160" ry="155.442315"></ellipse>
        <linearGradient x1="43.1516707%" y1="3.52771763%" x2="43.1516707%" y2="123.044833%" id="linearGradient-3">
            <stop stop-color="#01BFC7" offset="0%"></stop>
            <stop stop-color="#2D90BE" offset="100%"></stop>
        </linearGradient>
        <path d="M0.669530519,0.0545495262 L13.0011139,23.4201663 C14.2906537,28.1813937 15.3919117,30.8875025 16.304888,31.5384925 C17.6743524,32.5149775 19.8852897,31.5384925 23.6152279,31.5384925 C27.345166,31.5384925 29.1228199,46.4541337 32.1304588,49.0862321 C35.1380977,51.7183304 43.475062,52.0957621 50.8498274,55.3725188 C58.2245928,58.6492754 63.3516753,79.2874858 68.0062838,83.3576729 C72.6608924,87.42786 84.9020229,84.9362521 90.7135495,90.2310482 C96.5250761,95.5258442 96.5082864,100.286052 99.5181002,104.285443 C102.527914,108.284835 104.287795,111.970279 119.411954,114.674851 C134.536113,117.379423 139.04194,116.611249 156.300206,116.611249 C173.558471,116.611249 184.534953,117.369309 192.816574,114.674851 C201.098196,111.980392 195.944762,107.589248 212.498543,100.958975 C229.052324,94.3287025 239.321732,96.8186402 253.84534,90.2310482 C268.368948,83.6434561 265.61439,80.0494442 271.605683,75.269046 C277.596976,70.4886479 282.942035,70.8119264 286.393807,66.4516098 C289.845578,62.0912932 289.298207,50.3016775 289.878177,49.0862321 C290.458147,47.8707866 293.467169,48.7090846 295.880643,47.0025779 C298.294117,45.2960712 300.707149,33.6864689 303.125551,31.5384925 C305.543952,29.3905161 310.26986,32.8010072 313.924331,29.373681 C316.360645,27.0887968 316.58854,19.5670726 314.608015,6.80850828 L320.537079,0.0545495262 L295.061652,3.14563031 L130.546427,13.7797922 L28.3667273,3.14563031 L0.669530519,0.0545495262 Z" id="path-4"></path>
        <path d="M44.8026737,0.596323556 L47.7716623,0.596323556 C48.9667311,1.81236907 49.4631869,3.59374035 49.2610297,5.9404374 C48.9577939,9.46048296 36.881341,12.8249885 36.4137139,19.5561312 C35.9460868,26.2872739 43.3829204,26.4868973 44.8026737,32.8989416 C46.222427,39.3109858 42.2323043,42.4886861 35.7669085,52.2047417 C29.3015127,61.9207972 33.7955983,118.695168 33.1573918,124.563985 C32.5191852,130.432801 30.4128599,121.816538 29.3048127,121.858363 C27.5806114,121.923446 30.4523461,140.939311 25.7207067,142.419772 C20.9890672,143.900232 21.2774142,127.32527 16.1153845,130.281235 C9.58415583,134.021253 14.0596245,120.971435 9.20683187,120.971435 C8.42719823,120.971435 8.82882207,126.072925 4.46557893,125.318455 C0.102335786,124.563985 -2.87892763,61.8209235 5.68848767,50.2069588 C14.255903,38.5929942 22.3754184,38.136084 23.6457069,32.8989416 C24.9159954,27.6617992 18.9738808,24.2030694 22.8446861,19.5561312 C26.7154915,14.909193 42.8177106,8.09411962 44.6008367,5.2381297 C45.7895875,3.33413642 45.8568665,1.7868677 44.8026737,0.596323556 Z" id="path-6"></path>
        <path d="M61.3726973,149.696302 L66.5598085,148.884826 C101.939952,125.931809 120.622921,99.6813031 122.608714,70.1333071 C125.377506,28.9345266 93.1632323,0 61.3726973,0 C29.5821622,0 -2.10863866,28.8867719 0.136680553,70.1333071 C1.646302,97.8650673 20.355133,124.136593 56.2631736,148.947885 L61.3726973,149.696302 Z" id="path-8"></path>
        <linearGradient x1="9.04566092%" y1="0%" x2="100%" y2="168.860142%" id="linearGradient-10">
            <stop stop-color="#FAD961" offset="0%"></stop>
            <stop stop-color="#F76B1C" offset="100%"></stop>
        </linearGradient>
        <linearGradient x1="13.9530412%" y1="6.12538352%" x2="100%" y2="160.517846%" id="linearGradient-11">
            <stop stop-color="#FFFFFF" offset="0%"></stop>
            <stop stop-color="#E1E1E1" offset="100%"></stop>
        </linearGradient>
    </defs>
    <g id="[animation]-home" stroke="none" stroke-width="1" fill="none" fill-rule="evenodd" transform="translate(-815.000000, -151.000000)">
        <g id="Header">
            <g id="header">
                <g id="hero-image" transform="translate(805.000000, 151.000000)">
                    <g id="Group-12" transform="translate(160.000000, 193.575710) rotate(-360.000000) translate(-160.000000, -193.575710) translate(0.000000, 38.075710)">
                        <mask id="mask-2" fill="white">
                            <use xlink:href="#path-1"></use>
                        </mask>
                        <g id="Oval-11"></g>
                        <g id="hotAirBalloon_land" mask="url(#mask-2)">
                            <g transform="translate(3.428571, 185.420476)" id="Land">
                                <g>
                                    <g id="Group-2">
                                        <g id="Group-3" transform="translate(1.142857, 34.163229)">
                                            <mask id="mask-5" fill="white">
                                                <use xlink:href="#path-4"></use>
                                            </mask>
                                            <use id="Path-3" fill="url(#linearGradient-3)" xlink:href="#path-4"></use>
                                            <polygon id="Path-7" fill="#0E152D" opacity="0.15" mask="url(#mask-5)" points="25.3175541 34.9399054 22.0795199 11.8354049 31.6615572 15.5731978 31.6615572 50.1966064"></polygon>
                                            <polygon id="Path-6" fill="#0E152D" opacity="0.15" mask="url(#mask-5)" points="67.3083673 85.4799224 52.5714286 59.968275 54.1594791 24.3095019 67.3083673 28.1823968"></polygon>
                                            <path d="M216.844626,39.7503082 L216.844626,103.477669 C207.208851,110.854785 200.427901,115.394756 196.501777,117.097583 C192.575654,118.800409 182.694109,120.618104 166.857143,122.550666 L160.047752,35.9948042 L216.844626,39.7503082 Z" id="Path-4-Copy" fill="#0E152D" opacity="0.15" mask="url(#mask-5)"></path>
                                            <polygon id="Path-4-Copy-2" fill="#0E152D" opacity="0.15" mask="url(#mask-5)" points="291.133217 15.2913303 289.737642 67.7154037 269.0033 77.1762065 266.225464 18.2606406"></polygon>
                                            <polygon id="Path-4-Copy-3" fill="#0E152D" opacity="0.15" mask="url(#mask-5)" points="319.800307 -0.682703818 315.191937 31.6544819 302.82034 35.5843035 301.294755 2.38474363"></polygon>
                                            <path d="M90.2857143,35.7858126 L90.2857143,90.0384928 C94.4575444,97.8253366 97.6690352,103.022021 99.9201867,105.628546 C102.171338,108.235072 105.382829,110.475321 109.554659,112.349294 L99.5661789,44.6430442 L90.2857143,35.7858126 Z" id="Path-5-Copy" fill="#0E152D" opacity="0.15" mask="url(#mask-5)"></path>
                                            <path d="M10.199609,20.6778973 L30.3400072,34.2972639 C30.4425353,34.3665956 30.5492557,34.4295159 30.6595565,34.4856641 L68.5349612,53.7659891 C68.8563841,53.9296081 69.1456685,54.1498466 69.3889287,54.4161329 L87.2546698,73.972981 C87.5694131,74.3175167 87.960192,74.5838766 88.3959399,74.7508854 L137.592773,93.6065127 C138.392422,93.9129936 139.284932,93.8631249 140.045462,93.4694693 L175.782727,74.9716042 C176.377005,74.6640018 177.057065,74.563918 177.714766,74.6872682 L222.219184,83.0339662 C222.85613,83.1534239 223.514634,83.0634181 224.096161,82.7774166 L256.995794,66.5970133 C257.407743,66.394412 257.860695,66.2890549 258.31977,66.2890549 L268.646765,66.2890549 C269.331242,66.2890549 269.995137,66.0549907 270.528266,65.6257099 L295.738699,45.3259919 C296.01251,45.1055165 296.245439,44.8386319 296.426856,44.537518 L305.689401,29.1636317 C305.703681,29.13993 305.717632,29.1160319 305.731251,29.0919443 L319.865336,4.09268001 C320.680781,2.65038478 320.172619,0.820124734 318.730323,0.0046797785 C318.271443,-0.254762298 317.752301,-0.388711073 317.22518,-0.38367689 L6.127261,2.58741319 C4.47048231,2.60323599 3.14022472,3.9591474 3.15604751,5.6159261 C3.16004153,6.03413271 3.25143357,6.44688401 3.42435728,6.82768595 L9.14855862,19.4331691 C9.37738855,19.9370843 9.74115241,20.3678792 10.199609,20.6778973 Z" id="Path-5" fill-opacity="0.2" fill="#064245" mask="url(#mask-5)"></path>
                                            <path d="M8.36633517,4.66679133 L29.1971501,18.7530324 C29.2996782,18.8223641 29.4063985,18.8852844 29.5166993,18.9414326 L67.3921041,38.2217576 C67.7135269,38.3853767 68.0028114,38.6056151 68.2460715,38.8719014 L86.1118127,58.4287495 C86.4265559,58.7732852 86.8173348,59.0396451 87.2530828,59.2066539 L136.449916,78.0622812 C137.249565,78.3687621 138.142075,78.3188934 138.902605,77.9252378 L174.63987,59.4273727 C175.234147,59.1197703 175.914208,59.0196865 176.571908,59.1430367 L221.076327,67.4897347 C221.713273,67.6091924 222.371777,67.5191866 222.953304,67.2331851 L255.852937,51.0527818 C256.264886,50.8501805 256.717838,50.7448234 257.176913,50.7448234 L267.503908,50.7448234 C268.188385,50.7448234 268.85228,50.5107592 269.385409,50.0814784 L294.595842,29.7817604 C294.869653,29.561285 295.102582,29.2944004 295.283998,28.9932865 L304.533544,13.640977 C304.556488,13.6028944 304.580276,13.5653265 304.60489,13.5283013 L309.63276,5.96523024 C310.550026,4.58545153 310.175085,2.72332896 308.795306,1.80606307 C308.303183,1.47890329 307.725397,1.30437343 307.134449,1.30437343 L6.33430999,1.30437343 C5.82889523,1.30437343 5.41917561,1.71409304 5.41917561,2.2195078 C5.41917561,2.52614002 5.57274578,2.81239413 5.8282218,2.98196808 L8.34489398,4.65242635 C8.35206161,4.65718391 8.35920874,4.66197228 8.36633517,4.66679133 Z" id="Path-5-Copy-2" fill-opacity="0.2" fill="#064245" mask="url(#mask-5)"></path>
                                        </g>
                                        <g id="mountains">
                                            <g id="Group-18">
                                                <path d="M3.51139746,32.9737721 C13.4465537,20.971294 21.7557274,14.3762259 28.4389186,13.1885678 C38.4637054,11.4070806 49.3798846,25.6557996 59.179061,23.0811699 C68.9782375,20.5065403 85.1722387,4.63671464 97.4750595,4.63671464 C109.77788,4.63671464 119.526229,18.8052434 124.145815,18.8052434 C128.765401,18.8052434 132.095306,10.7964785 140.455585,10.7964785 C146.029104,10.7964785 156.393184,19.2203009 171.547825,36.0679459 L8.15450685,36.0679459 L3.51139746,32.9737721 Z" id="Path-9" fill="#FAFAFA"></path>
                                                <path d="M0.0828260299,34.0840744 C10.0179822,22.0815962 18.327156,15.4865281 25.0103472,14.29887 C35.035134,12.5173828 45.9513132,26.7661018 55.7504896,24.1914722 C65.549666,21.6168426 81.7436672,5.74701688 94.0464881,5.74701688 C106.349309,5.74701688 116.097658,19.9155456 120.717244,19.9155456 C125.33683,19.9155456 128.666734,11.9067807 137.027013,11.9067807 C142.600533,11.9067807 152.964613,20.3306032 168.119253,37.1782481 L4.72593542,37.1782481 L0.0828260299,34.0840744 Z" id="Path-9-Copy" fill-opacity="0.2" fill="#0FB4BB"></path>
                                                <path d="M235.264534,15.9438749 C245.986475,8.78461745 255.854082,5.4471532 264.867356,5.93148219 C281.375413,6.81854398 290.917139,24.0325823 293.952529,25.3593917 C296.987919,26.686201 298.875293,21.2509269 305.043632,21.9101301 C309.155857,22.3495989 312.980531,26.637735 316.517652,34.7745384 L258.580512,37.8001939 C258.86293,38.1144265 259.145621,38.4306702 259.428571,38.748909 L139.573851,41.3737749 L130.240116,36.2744395 C155.264829,12.5436444 177.410891,0.678246787 196.678301,0.678246787 C208.879022,0.678246787 221.741099,5.7667895 235.264534,15.9438749 Z" id="Combined-Shape" fill="#FAFAFA"></path>
                                                <path d="M223.835963,22.6056884 C234.557904,15.4464309 244.425511,12.1089667 253.438785,12.5932957 C269.946842,13.4803575 279.488567,30.6943958 282.523957,32.0212052 C285.559348,33.3480145 287.446721,27.9127404 293.61506,28.5719436 C297.727286,29.0114124 301.55196,33.2995485 305.089081,41.4363519 L247.15194,44.4620074 C247.434358,44.77624 247.717049,45.0924837 248,45.4107225 L128.14528,48.0355884 L118.811545,42.936253 C143.836258,19.2054579 165.982319,7.34006029 185.24973,7.34006029 C197.45045,7.34006029 210.312528,12.428603 223.835963,22.6056884 Z" id="Combined-Shape-Copy" fill-opacity="0.2" fill="#0FB4BB"></path>
                                                <ellipse id="Oval-5" fill="#0FB4BB" cx="170.857143" cy="16.6545337" rx="2.85714286" ry="2.2206045"></ellipse>
                                                <ellipse id="Oval-5-Copy-12" fill="#0FB4BB" cx="161.142857" cy="18.3199871" rx="2.28571429" ry="1.66545337"></ellipse>
                                            </g>
                                        </g>
                                        <path d="M1.25957052,32.8394451 C2.33967701,37.2567726 3.86680066,40.1511349 5.84094149,41.5225319 C8.80215273,43.5796273 16.5877072,47.6360641 22.5594639,47.6360641 C28.5312205,47.6360641 27.9682117,54.5000506 37.8874156,58.8347917 C47.8066195,63.1695328 54.6044305,57.8793419 62.6229116,61.0666237 C70.6413927,64.2539056 71.8378683,70.2166145 80.2179009,73.810795 C85.8045894,76.2069153 96.3348939,78.9907725 111.808814,82.1623665 C128.447669,84.7303002 142.676317,85.3750158 154.494759,84.0965134 C172.222421,82.1787598 165.062564,77.3860697 175.0632,75.4553707 C185.063836,73.5246716 197.098718,73.4189568 207.772729,73.810795 C218.44674,74.2026332 214.504314,77.2483044 223.904263,77.2483044 C233.304213,77.2483044 237.611759,73.810795 257.315354,70.2465062 C277.018949,66.6822174 262.268965,63.9038575 273.36865,58.8347917 C277.049136,57.153967 281.363833,57.8115142 287.101973,55.4052869 C292.840112,52.9990597 295.733388,47.7530214 300.997154,43.88275 C304.506331,41.302569 310.923641,38.1381395 320.249086,34.3894615 L1.25957052,32.8394451 Z" id="Path-2" fill="#7CD6DA"></path>
                                    </g>
                                    <g id="tree-copy-7" transform="translate(289.142857, 13.323627)">
                                        <ellipse id="Oval-2" fill="#0FB4BB" cx="7.42857143" cy="11.1030225" rx="7.42857143" ry="11.1030225"></ellipse>
                                        <path d="M7.11651513,15.7581893 C7.15851326,14.7770963 7.19884191,13.8910151 7.23750108,13.0999456 C3.90980913,11.0303834 2.24596316,9.88914022 2.24596316,9.67621608 C2.24596316,9.46179025 3.93336095,10.1449573 7.30815652,11.7257173 C7.40899549,9.87241281 7.4971397,8.74157852 7.57258917,8.33321441 C7.88091584,6.66442143 8.09226813,5.07579805 8.3453613,5.68410434 C8.43450321,5.8983558 8.47655013,8.05310332 8.47150206,12.1483469 C11.6205325,10.6803838 13.1950478,10.049967 13.1950478,10.2570964 C13.1950478,10.4642692 11.6198729,11.4185488 8.46952321,13.1199353 C8.46804445,13.650621 8.46587792,14.2096449 8.46302365,14.7970069 C11.963865,13.9610458 13.7142857,13.6045914 13.7142857,13.7276437 C13.7142857,13.850746 11.9624416,14.4771981 8.45875347,15.607 C8.453044,16.6144795 8.44547595,17.6985397 8.43604932,18.8591807 C11.2410129,17.5625974 12.6434947,17.012049 12.6434947,17.2075356 C12.6434947,17.4032045 11.2383964,18.2653128 8.42819968,19.7938604 C8.40775746,22.1529701 8.38014467,24.8075353 8.3453613,27.7575562 L6.67327047,27.7575562 C6.76932988,24.8715823 6.85978849,22.3043556 6.94464629,20.055876 C3.81219087,18.363566 2.24596316,17.4141192 2.24596316,17.2075356 C2.24596316,17.0001552 3.82429727,17.6323524 6.98096549,19.1041272 C7.01382189,18.2528985 7.04580576,17.4513263 7.07691709,16.6994107 C3.12087713,14.9402453 1.14285714,13.9545678 1.14285714,13.7423783 C1.14285714,13.529482 3.13407647,14.201419 7.11651513,15.7581893 Z" id="Combined-Shape" fill="#064245"></path>
                                    </g>
                                    <g id="tree-copy-4" transform="translate(80.000000, 15.544231)">
                                        <ellipse id="Oval-2" fill="#0FB4BB" cx="8.57142857" cy="13.323627" rx="8.57142857" ry="13.323627"></ellipse>
                                        <path d="M8.74569459,17.7995249 C8.79914675,16.6222134 8.85047412,15.5589159 8.89967669,14.6096324 C4.6644324,12.1261578 2.54681026,10.756666 2.54681026,10.501157 C2.54681026,10.2438461 4.69440744,11.0636465 8.98960181,12.9605585 C9.11794231,10.7365931 9.23012586,9.37959197 9.32615246,8.88955504 C9.71856822,6.88700347 9.98756203,4.98065541 10.3096806,5.71062295 C10.423134,5.96772472 10.4766482,8.55342174 10.4702234,13.467714 C14.4780804,11.7061583 16.4820088,10.9496581 16.4820088,11.1982134 C16.4820088,11.4468208 14.4772408,12.5919563 10.4677049,14.6336201 C10.4658228,15.270443 10.4630654,15.9412716 10.4594327,16.6461061 C14.915049,15.6429527 17.1428571,15.2152074 17.1428571,15.3628701 C17.1428571,15.5105929 14.9132374,16.2623354 10.4539979,17.6180977 C10.4467313,18.8270731 10.4370993,20.1279454 10.4251017,21.5207146 C13.9950554,19.9648146 15.7800323,19.3041566 15.7800323,19.5387405 C15.7800323,19.7735431 13.9917253,20.8080731 10.4151113,22.6423303 C10.3890939,25.4732618 10.3539504,28.6587402 10.3096806,32.1987652 L8.18156501,32.1987652 C8.30382244,28.7355965 8.41895158,25.6549244 8.52695242,22.9567489 C4.54019098,20.9259769 2.54681026,19.7866408 2.54681026,19.5387405 C2.54681026,19.289884 4.55559912,20.0485206 8.57317685,21.8146504 C8.61499409,20.793176 8.65570083,19.8312894 8.69529708,18.9289906 C3.66033712,16.8179921 1.14285714,15.6351791 1.14285714,15.3805517 C1.14285714,15.1250761 3.67713629,15.9314005 8.74569459,17.7995249 Z" id="Combined-Shape" fill="#064245"></path>
                                    </g>
                                    <ellipse id="Oval-5-Copy-10" fill-opacity="0.15" fill="#064245" cx="78.2857143" cy="47.1878456" rx="10.8571429" ry="1"></ellipse>
                                    <g id="tree-copy-8" transform="translate(259.428571, 18.875138)">
                                        <ellipse id="Oval-2" fill="#0FB4BB" cx="7.42857143" cy="11.1030225" rx="7.42857143" ry="11.1030225"></ellipse>
                                        <path d="M7.11651513,15.7581893 C7.15851326,14.7770963 7.19884191,13.8910151 7.23750108,13.0999456 C3.90980913,11.0303834 2.24596316,9.88914022 2.24596316,9.67621608 C2.24596316,9.46179025 3.93336095,10.1449573 7.30815652,11.7257173 C7.40899549,9.87241281 7.4971397,8.74157852 7.57258917,8.33321441 C7.88091584,6.66442143 8.09226813,5.07579805 8.3453613,5.68410434 C8.43450321,5.8983558 8.47655013,8.05310332 8.47150206,12.1483469 C11.6205325,10.6803838 13.1950478,10.049967 13.1950478,10.2570964 C13.1950478,10.4642692 11.6198729,11.4185488 8.46952321,13.1199353 C8.46804445,13.650621 8.46587792,14.2096449 8.46302365,14.7970069 C11.963865,13.9610458 13.7142857,13.6045914 13.7142857,13.7276437 C13.7142857,13.850746 11.9624416,14.4771981 8.45875347,15.607 C8.453044,16.6144795 8.44547595,17.6985397 8.43604932,18.8591807 C11.2410129,17.5625974 12.6434947,17.012049 12.6434947,17.2075356 C12.6434947,17.4032045 11.2383964,18.2653128 8.42819968,19.7938604 C8.40775746,22.1529701 8.38014467,24.8075353 8.3453613,27.7575562 L6.67327047,27.7575562 C6.76932988,24.8715823 6.85978849,22.3043556 6.94464629,20.055876 C3.81219087,18.363566 2.24596316,17.4141192 2.24596316,17.2075356 C2.24596316,17.0001552 3.82429727,17.6323524 6.98096549,19.1041272 C7.01382189,18.2528985 7.04580576,17.4513263 7.07691709,16.6994107 C3.12087713,14.9402453 1.14285714,13.9545678 1.14285714,13.7423783 C1.14285714,13.529482 3.13407647,14.201419 7.11651513,15.7581893 Z" id="Combined-Shape" fill="#064245"></path>
                                    </g>
                                    <g id="tree-copy-3" transform="translate(64.000000, 21.095743)">
                                        <ellipse id="Oval-2" fill="#0FB4BB" cx="10.8571429" cy="16.6545337" rx="10.8571429" ry="16.6545337"></ellipse>
                                        <path d="M10.374874,21.9718305 C10.4397802,20.5001911 10.5021063,19.1710693 10.5618523,17.984465 C5.41905567,14.8801217 2.84765735,13.168257 2.84765735,12.8488707 C2.84765735,12.527232 5.45545393,13.5519826 10.6710471,15.9231226 C10.8268891,13.1431658 10.963112,11.4469144 11.0797157,10.8343682 C11.5562206,8.33117878 11.8828559,5.9482437 12.2739999,6.86070313 C12.4117647,7.18208033 12.4767463,10.4142016 12.4689447,16.557067 C17.3356282,14.3551223 19.7689699,13.4094971 19.7689699,13.7201912 C19.7689699,14.0309504 17.3346088,15.4623699 12.4658865,18.0144496 C12.4636012,18.8104782 12.4602529,19.649014 12.4558417,20.530057 C17.866233,19.2761153 20.5714286,18.7414337 20.5714286,18.9260121 C20.5714286,19.1106656 17.8640332,20.0503437 12.4492424,21.7450466 C12.4404187,23.2562658 12.4287226,24.8823562 12.4141541,26.6233177 C16.7490979,24.6784427 18.9165698,23.8526202 18.9165698,24.1458501 C18.9165698,24.4393534 16.7450542,25.7325158 12.4020229,28.0253373 C12.3704304,31.5640017 12.327756,35.5458496 12.2739999,39.970881 L9.68985955,39.970881 C9.83831501,35.6419201 9.97811468,31.79108 10.1092586,28.4183606 C5.26819108,25.8798956 2.84765735,24.4557254 2.84765735,24.1458501 C2.84765735,23.8347794 5.28690097,24.7830752 10.1653882,26.9907375 C10.2161663,25.7138944 10.2655959,24.5115361 10.3136771,23.3836627 C4.19979712,20.7449145 1.14285714,19.2663983 1.14285714,18.948114 C1.14285714,18.6287696 4.22019611,19.6366751 10.374874,21.9718305 Z" id="Combined-Shape" fill="#064245"></path>
                                    </g>
                                    <g id="tree-copy" transform="translate(214.857143, 18.875138)">
                                        <ellipse id="Oval-2" fill="#0FB4BB" cx="10.8571429" cy="16.0993826" rx="10.8571429" ry="16.0993826"></ellipse>
                                        <path d="M10.9179339,22.5717989 C10.9866581,21.1492141 11.0526504,19.8643963 11.1159109,18.7173455 C5.67059676,15.7164803 2.94793972,14.0616778 2.94793972,13.7529377 C2.94793972,13.4420203 5.7091361,14.4326126 11.2315289,16.7247145 C11.3965381,14.037423 11.5407741,12.3977133 11.6642368,11.8055853 C12.1687714,9.38583552 12.5146206,7.08233161 12.928773,7.96437573 C13.0746416,8.27504035 13.1434457,11.3994243 13.1351852,17.3375274 C18.2881441,15.208981 20.8646236,14.2948765 20.8646236,14.5952142 C20.8646236,14.8956148 18.2870648,16.2793202 13.1319471,18.7463306 C13.1295273,19.5158249 13.1259821,20.3264095 13.1213114,21.1780845 C18.8499609,19.9659409 21.7142857,19.4490819 21.7142857,19.6275077 C21.7142857,19.8060061 18.8476318,20.7143616 13.1143239,22.3525744 C13.1049811,23.8134197 13.092597,25.385307 13.0771716,27.0682364 C17.6671121,25.1881907 19.9620823,24.3898955 19.9620823,24.6733511 C19.9620823,24.9570709 17.6628305,26.2071279 13.0643267,28.423522 C13.0308758,31.844231 12.9856913,35.6933507 12.928773,39.970881 L10.1926244,39.970881 C10.3498125,35.7862188 10.4978357,32.06374 10.6366939,28.8034446 C5.51085779,26.3495951 2.94793972,24.9728973 2.94793972,24.6733511 C2.94793972,24.3726494 5.53066826,25.2893354 10.6961253,27.4234089 C10.7498904,26.1891273 10.8022276,25.0268476 10.8531371,23.93657 C4.37961712,21.3857801 1.14285714,19.9565477 1.14285714,19.6488729 C1.14285714,19.3401733 4.40121605,20.3144819 10.9179339,22.5717989 Z" id="Combined-Shape" fill="#064245"></path>
                                    </g>
                                    <ellipse id="Oval-5-Copy-6" fill-opacity="0.15" fill="#064245" cx="269.714286" cy="53.8496591" rx="10.2857143" ry="1"></ellipse>
                                    <ellipse id="Oval-5-Copy-7" fill-opacity="0.15" fill="#064245" cx="286.857143" cy="40.5260321" rx="10.2857143" ry="1"></ellipse>
                                    <ellipse id="Oval-5-Copy-8" fill-opacity="0.15" fill="#064245" cx="257.142857" cy="46.0775434" rx="10.2857143" ry="1"></ellipse>
                                    <g id="tree-copy-10" transform="translate(28.571429, 17.764836)">
                                        <ellipse id="Oval-2" fill="#0FB4BB" cx="5.14285714" cy="7.77211575" rx="5.14285714" ry="7.77211575"></ellipse>
                                        <path d="M5.48733568,10.4755814 C5.51787977,9.78881631 5.5472097,9.16855945 5.57532546,8.61481077 C3.15518586,7.16611724 1.94511606,6.36724703 1.94511606,6.21820013 C1.94511606,6.06810205 3.17231446,6.546319 5.62671124,7.65285098 C5.70004867,6.35553784 5.76415355,5.56395384 5.81902589,5.27809896 C6.04326347,4.10994388 6.19697422,2.99790751 6.38104198,3.42372191 C6.44587246,3.57369794 6.47645204,5.0820212 6.47278072,7.9486917 C8.76298469,6.92111754 9.90808668,6.47982576 9.90808668,6.62481635 C9.90808668,6.76983731 8.76250497,7.43783305 6.47134156,8.62880358 C6.47026609,9.00028359 6.46869044,9.39160031 6.4666146,9.80275373 C9.01268106,9.21758094 10.2857143,8.96806284 10.2857143,9.05419944 C10.2857143,9.14037105 9.01164586,9.57888752 6.46350902,10.3697488 C6.45935668,11.0749845 6.45385264,11.8338267 6.44699691,12.6462754 C8.48697045,11.738667 9.50695722,11.3532832 9.50695722,11.4901238 C9.50695722,11.627092 8.4850675,12.2305678 6.44128808,13.3005512 C6.42642101,14.9519279 6.40633898,16.8101236 6.38104198,18.8751382 L5.16497592,18.8751382 C5.23483731,16.8549565 5.30062539,15.0578978 5.36234016,13.4839621 C3.08419076,12.2993451 1.94511606,11.6347323 1.94511606,11.4901238 C1.94511606,11.3449575 3.09299542,11.7874955 5.38875412,12.8177379 C5.41264968,12.2218778 5.43591068,11.6607773 5.45853711,11.1344364 C2.58141713,9.90302056 1.14285714,9.21304632 1.14285714,9.06451366 C1.14285714,8.91548625 2.59101666,9.38584216 5.48733568,10.4755814 Z" id="Combined-Shape" fill="#064245"></path>
                                    </g>
                                    <g id="tree-copy-6" transform="translate(269.714286, 18.875138)">
                                        <ellipse id="Oval-2" fill="#0FB4BB" cx="9.71428571" cy="14.4339292" rx="9.71428571" ry="14.4339292"></ellipse>
                                        <path d="M9.2887544,19.9304949 C9.34602458,18.6550741 9.40101819,17.5031685 9.45373523,16.4747781 C4.91597349,13.7843473 2.64709262,12.3007312 2.64709262,12.0239298 C2.64709262,11.7451762 4.9480896,12.6332934 9.55008357,14.6882814 C9.68759125,12.2789855 9.80778791,10.8089009 9.91067355,10.2780276 C10.331119,8.10859674 10.6193267,6.04338634 10.9644537,6.83418451 C11.0860109,7.11271142 11.1433476,9.91388319 11.1364638,15.2376998 C15.4305963,13.3293478 17.5776625,12.5098059 17.5776625,12.7790742 C17.5776625,13.0483988 15.4296968,14.2889623 11.1337654,16.5007648 C11.1317489,17.1906562 11.1287946,17.9173873 11.1249024,18.6809579 C15.898777,17.5942084 18.2857143,17.1308177 18.2857143,17.2907856 C18.2857143,17.4508186 15.896836,18.2652064 11.1190794,19.7339488 C11.1112938,21.0436722 11.1009737,22.4529505 11.0881192,23.9617838 C14.9130696,22.2762255 16.8255448,21.5605126 16.8255448,21.8146452 C16.8255448,22.0690147 14.9095016,23.1897555 11.0774151,25.1768674 C11.0495394,28.24371 11.0118856,31.6946448 10.9644537,35.529672 L8.68432986,35.529672 C8.81531997,31.7779059 8.93867261,28.4405111 9.0543878,25.5174876 C4.78285768,23.3174847 2.64709262,22.0832038 2.64709262,21.8146452 C2.64709262,21.5450506 4.7993664,22.366907 9.10391397,24.2802143 C9.14871816,23.1736169 9.19233252,22.1315731 9.23475708,21.1540828 C3.84015712,18.8671677 1.14285714,17.585787 1.14285714,17.3099406 C1.14285714,17.0331754 3.85815623,17.9066935 9.2887544,19.9304949 Z" id="Combined-Shape" fill="#064245"></path>
                                    </g>
                                    <g id="tree" transform="translate(236.571429, 14.433929)">
                                        <ellipse id="Oval-2" fill="#0FB4BB" cx="14.2857143" cy="21.6508939" rx="14.2857143" ry="21.6508939"></ellipse>
                                        <path d="M13.6332329,29.8957424 C13.7210472,27.9826112 13.8053707,26.2547528 13.8862035,24.7121672 C6.92830221,20.6765209 3.44935154,18.4510967 3.44935154,18.0358947 C3.44935154,17.6177643 6.97754692,18.9499401 14.0339377,22.032422 C14.2447828,18.4184783 14.4290843,16.2133514 14.5868423,15.4170414 C15.2315253,12.1628951 15.6734438,9.06507951 16.2026386,10.2512768 C16.3890262,10.6690671 16.4769425,14.8708248 16.4663874,22.8565497 C23.0507238,19.9940217 26.3428921,18.7647089 26.3428921,19.1686113 C26.3428921,19.5725982 23.0493446,21.4334435 16.4622498,24.7511471 C16.4591579,25.7859843 16.4546279,26.8760809 16.4486598,28.0214369 C23.7686009,26.3913126 27.4285714,25.6962265 27.4285714,25.9361784 C27.4285714,26.1762279 23.7656247,27.3978095 16.4397313,29.6009232 C16.4277933,31.5655083 16.4119692,33.6794258 16.392259,35.9426756 C22.2571829,33.4143382 25.1896449,32.3407689 25.1896449,32.7219678 C25.1896449,33.1035221 22.2517119,34.7846332 16.3758461,37.7653011 C16.3331033,42.3655649 16.2753674,47.5419672 16.2026386,53.294508 L12.7064486,53.294508 C12.9073001,47.6668588 13.0964409,42.6607667 13.2738708,38.2762315 C6.7241913,34.976227 3.44935154,33.1248058 3.44935154,32.7219678 C3.44935154,32.3175759 6.74950468,33.5503605 13.349811,36.4203214 C13.4185107,34.7604254 13.4853861,33.1973597 13.550437,31.7311242 C5.27871711,28.3007516 1.14285714,26.3786805 1.14285714,25.9649109 C1.14285714,25.5497632 5.30631574,26.8600403 13.6332329,29.8957424 Z" id="Combined-Shape" fill="#064245"></path>
                                    </g>
                                    <g id="tree-copy-9" transform="translate(98.285714, 26.647254)">
                                        <ellipse id="Oval-2" fill="#0FB4BB" cx="10.8571429" cy="16.0993826" rx="10.8571429" ry="16.0993826"></ellipse>
                                        <path d="M10.374874,21.4614966 C10.4397802,20.0389119 10.5021063,18.7540941 10.5618523,17.6070433 C5.41905567,14.6061781 2.84765735,12.9513755 2.84765735,12.6426355 C2.84765735,12.3317181 5.45545393,13.3223103 10.6710471,15.6144123 C10.8268891,12.9271208 10.963112,11.287411 11.0797157,10.6952831 C11.5562206,8.27553327 11.8828559,5.97202936 12.2739999,6.85407348 C12.4117647,7.1647381 12.4767463,10.289122 12.4689447,16.2272252 C17.3356282,14.0986787 19.7689699,13.1845743 19.7689699,13.484912 C19.7689699,13.7853125 17.3346088,15.169018 12.4658865,17.6360284 C12.4636012,18.4055227 12.4602529,19.2161073 12.4558417,20.0677823 C17.866233,18.8556386 20.5714286,18.3387797 20.5714286,18.5172055 C20.5714286,18.6957038 17.8640332,19.6040594 12.4492424,21.2422721 C12.4404187,22.7031174 12.4287226,24.2750048 12.4141541,25.9579342 C16.7490979,24.0778884 18.9165698,23.2795933 18.9165698,23.5630488 C18.9165698,23.8467687 16.7450542,25.0968257 12.4020229,27.3132198 C12.3704304,30.7339288 12.327756,34.5830484 12.2739999,38.8605787 L9.68985955,38.8605787 C9.83831501,34.6759165 9.97811468,30.9534378 10.1092586,27.6931424 C5.26819108,25.2392929 2.84765735,23.862595 2.84765735,23.5630488 C2.84765735,23.2623472 5.28690097,24.1790331 10.1653882,26.3131067 C10.2161663,25.078825 10.2655959,23.9165454 10.3136771,22.8262677 C4.19979712,20.2754778 1.14285714,18.8462455 1.14285714,18.5385707 C1.14285714,18.229871 4.22019611,19.2041797 10.374874,21.4614966 Z" id="Combined-Shape" fill="#064245"></path>
                                    </g>
                                    <ellipse id="Oval-5-Copy-2" fill-opacity="0.15" fill="#064245" cx="94.2857143" cy="65.5078327" rx="14.2857143" ry="1.11030225"></ellipse>
                                    <path d="M64.4277216,61.799449 C68.3549965,61.799449 75.4285714,61.6798267 75.4285714,61.0666237 C75.4285714,60.4534207 65.7349093,59.9563215 61.1428571,59.9563215 C58.342356,59.9563215 60.2927059,60.4230337 62.6054514,61.0666237 C63.0024228,61.1770928 62.8955278,61.799449 64.4277216,61.799449 Z" id="Oval-5-Copy-11" fill-opacity="0.15" fill="#064245"></path>
                                    <path d="M36,56.6254147 C39.3747118,56.6254147 50.2857143,56.1283155 50.2857143,55.5151125 C50.2857143,54.9019095 43.8897821,54.4048102 36,54.4048102 C28.1102179,54.4048102 32.6252882,56.6254147 36,56.6254147 Z" id="Oval-5-Copy-2" fill-opacity="0.15" fill="#064245"></path>
                                    <ellipse id="Oval-5-Copy-9" fill-opacity="0.15" fill="#064245" cx="13.1428571" cy="40.5260321" rx="6.28571429" ry="1"></ellipse>
                                    <ellipse id="Oval-5-Copy-10" fill-opacity="0.15" fill="#064245" cx="29.1428571" cy="36.0848231" rx="5.14285714" ry="1"></ellipse>
                                    <g id="tree-copy-5" transform="translate(12.571429, 17.764836)">
                                        <ellipse id="Oval-2" fill="#0FB4BB" cx="6.28571429" cy="9.43756912" rx="6.28571429" ry="9.43756912"></ellipse>
                                        <path d="M6.57345532,13.1168853 C6.61163543,12.2829563 6.64829784,11.5297873 6.68344254,10.8573782 C3.65826804,9.09825031 2.14568079,8.12819363 2.14568079,7.9472081 C2.14568079,7.76494615 3.67967878,8.34563817 6.74767476,9.68928414 C6.83934655,8.11397533 6.91947765,7.15276618 6.98806808,6.80565669 C7.26836505,5.38718266 7.46050349,4.03685278 7.69058819,4.55391312 C7.77162629,4.73602687 7.80985076,6.56756226 7.80526161,10.0485193 C10.6680166,8.80075067 12.0993941,8.26489637 12.0993941,8.44095637 C12.0993941,8.61705325 10.6674169,9.42819094 7.80346266,10.8743694 C7.80211833,11.3254523 7.80014876,11.8006226 7.79755396,12.2998803 C10.980137,11.5893134 12.5714286,11.2863271 12.5714286,11.3909215 C12.5714286,11.4955585 10.978843,12.0280428 7.79367199,12.9883744 C7.78848156,13.844732 7.78160152,14.7661832 7.77303185,15.752728 C10.3229988,14.6506322 11.5979822,14.1826661 11.5979822,14.3488297 C11.5979822,14.5151483 10.3206201,15.2479403 7.76589581,16.5472058 C7.74731198,18.552449 7.72220944,20.8088295 7.69058819,23.3163472 L6.17050562,23.3163472 C6.25783236,20.8632694 6.34006746,18.6811267 6.41721091,16.769919 C3.56952417,15.3314555 2.14568079,14.5244258 2.14568079,14.3488297 C2.14568079,14.1725563 3.58052998,14.709924 6.45022836,15.9609326 C6.48009782,15.2373882 6.50917406,14.5560518 6.5374571,13.9169235 C2.94105713,12.4216329 1.14285714,11.583807 1.14285714,11.403446 C1.14285714,11.2224841 2.95305653,11.7936306 6.57345532,13.1168853 Z" id="Combined-Shape" fill="#064245"></path>
                                    </g>
                                    <g id="tree-copy-2" transform="translate(36.571429, 8.882418)">
                                        <ellipse id="Oval-2" fill="#0FB4BB" cx="12.5714286" cy="18.8751382" rx="12.5714286" ry="18.8751382"></ellipse>
                                        <path d="M12.0040535,26.2337706 C12.0804137,24.5659126 12.1537385,23.0595745 12.2240279,21.7147563 C6.17367894,18.1965006 3.14850445,16.2563873 3.14850445,15.8944162 C3.14850445,15.5298923 6.21650042,16.6912763 12.3524924,19.3785683 C12.535836,16.2279507 12.6960982,14.3055324 12.833279,13.6113134 C13.393873,10.7743653 13.7781498,8.07370556 14.2383192,9.10782625 C14.4003954,9.47205374 14.4768444,13.1351245 14.4676661,20.0970386 C20.193176,17.6015013 23.055931,16.5297927 23.055931,16.8819127 C23.055931,17.2341065 20.1919767,18.8563819 14.4640682,21.7487389 C14.4613795,22.6509046 14.4574404,23.6012452 14.4522508,24.5997607 C20.8174169,23.1786267 24,22.5726542 24,22.7818431 C24,22.991117 20.8148289,24.0560856 14.4444868,25.9767488 C14.434106,27.689464 14.4203459,29.5323664 14.4032066,31.505456 C19.5031404,29.3012644 22.0531073,28.3653322 22.0531073,28.6976594 C22.0531073,29.0302965 19.498383,30.4958806 14.3889345,33.0944116 C14.3517668,37.104898 14.3015617,41.617659 14.2383192,46.6326945 L11.1981541,46.6326945 C11.3728076,41.7265388 11.5372778,37.3622533 11.6915647,33.539838 C5.99619119,30.6629111 3.14850445,29.0488515 3.14850445,28.6976594 C3.14850445,28.3451127 6.01820283,29.4198479 11.7575996,31.9218652 C11.8173385,30.4747763 11.875491,29.1121036 11.9320571,27.8338471 C4.73925711,24.8432658 1.14285714,23.1676141 1.14285714,22.8068919 C1.14285714,22.4449682 4.76325593,23.5872611 12.0040535,26.2337706 Z" id="Combined-Shape" fill="#064245"></path>
                                    </g>
                                    <ellipse id="Oval-5-Copy" fill-opacity="0.15" fill="#064245" cx="227.428571" cy="67.7284372" rx="24" ry="1.11030225"></ellipse>
                                    <ellipse id="Oval-5-Copy-2" fill-opacity="0.15" fill="#064245" cx="212" cy="58.8460192" rx="14.2857143" ry="1.11030225"></ellipse>
                                    <g id="river" transform="translate(106.285714, 33.309067)">
                                        <mask id="mask-7" fill="white">
                                            <use xlink:href="#path-6"></use>
                                        </mask>
                                        <use id="River" fill="#FFFFFF" xlink:href="#path-6"></use>
                                    </g>
                                </g>
                            </g>
                        </g>
                    </g>
                    <path d="M119.900429,185.449314 C119.760504,185.70369 119.541016,185.95158 119.248569,186.191307 C118.385259,187.016744 117.254851,187.579543 115.994694,187.746339 C112.586238,188.826318 107.352188,189.517703 101.483166,189.517703 C92.0494679,189.517703 84.2563097,187.731411 83.0481989,185.416282 C82.3943301,184.666967 82,183.697338 82,182.638277 C82,180.550002 83.5331823,178.80944 85.5661598,178.420026 C85.5504304,178.25162 85.5423938,178.081057 85.5423938,177.908672 C85.5423938,174.821658 88.1196173,172.319138 91.2987836,172.319138 C91.7573029,172.319138 92.2033011,172.371194 92.6308522,172.469551 C92.7835326,166.662189 97.6796379,162 103.697162,162 C109.810943,162 114.767142,166.812537 114.767142,172.749103 C114.767142,174.162171 114.486338,175.511555 113.975956,176.747511 C114.373485,176.663202 114.786371,176.61878 115.209942,176.61878 C118.389108,176.61878 120.966331,179.121299 120.966331,182.208313 C120.966331,183.416507 120.571557,184.53517 119.900429,185.449314 Z" id="Combined-Shape" fill="#BFE9EA"></path>
                    <path d="M269.583886,179.864737 C269.898418,180.115963 270.06744,180.382314 270.06744,180.658143 C270.06744,182.177904 264.936316,183.409913 258.606754,183.409913 C252.542196,183.409913 247.577826,182.278907 247.172763,180.847447 C246.44361,180.067807 246,179.036845 246,177.906373 C246,175.474756 248.05245,173.503541 250.584274,173.503541 C251.427322,173.503541 252.217218,173.722101 252.895886,174.103442 C253.162369,170.689966 256.130512,168 259.752823,168 C263.55056,168 266.629234,170.956823 266.629234,174.604249 C266.629234,174.979635 266.596624,175.347706 266.533977,175.705992 C266.565625,175.705303 266.597379,175.704957 266.629234,175.704957 C268.528103,175.704957 270.06744,176.936966 270.06744,178.456727 C270.06744,178.971262 269.890994,179.452813 269.583886,179.864737 Z" id="Combined-Shape" fill="#BFE9EA" transform="translate(258.033720, 175.704957) scale(-1, 1) translate(-258.033720, -175.704957) "></path>
                    <g class="balloon" id="hot-air-balloon" transform="translate(120.930783, 0.000000)">
                        <g id="balloon" transform="translate(-0.000000, 0.000000)">
                            <mask id="mask-9" fill="white">
                                <use xlink:href="#path-8"></use>
                            </mask>
                            <use fill="#D8D8D8" xlink:href="#path-8"></use>
                            <ellipse id="Oval-5-Copy-3" fill="url(#linearGradient-10)" mask="url(#mask-9)" cx="61.3726973" cy="74.8481512" rx="66.134898" ry="74.8481512"></ellipse>
                            <ellipse id="Oval-5-Copy-5" fill="url(#linearGradient-11)" mask="url(#mask-9)" cx="61.9850574" cy="74.8481512" rx="52.0506142" ry="74.8481512"></ellipse>
                            <ellipse id="Oval-5-Copy-4" fill="url(#linearGradient-10)" mask="url(#mask-9)" cx="61.3726973" cy="74.8481512" rx="30.6180084" ry="74.8481512"></ellipse>
                            <path d="M41.3164973,168.40834 C62.8370079,168.40834 77.7101834,127.752026 77.7101834,77.5999215 C77.7101834,27.4478167 62.8370079,-13.2084973 41.3164973,-13.2084973 C19.7959867,-13.2084973 -9.02812465,20.1451128 -9.02812465,70.2972176 C-9.02812465,120.449322 19.7959867,168.40834 41.3164973,168.40834 Z" id="Oval-3" fill-opacity="0.05" fill="#064245" mask="url(#mask-9)"></path>
                        </g>
                        <g id="Basket" transform="translate(52.777183, 148.595594)" fill="#097074">
                            <path d="M10.9049463,7.00066652 C10.7556459,7.03774224 10.5989568,7.05748139 10.4374102,7.05748139 C9.42015916,7.05748139 8.59551427,6.27479299 8.59551427,5.30929793 C8.59551427,4.34380286 9.42015916,3.56111446 10.4374102,3.56111446 C10.7954277,3.56111446 11.1295879,3.65806298 11.4123375,3.82580867 L11.9529495,0.443080409 L12.4943474,0.443080409 L11.9244066,4.27746475 C12.1475517,4.56666188 12.2793061,4.9233763 12.2793061,5.30929793 C12.2793061,5.87134589 11.99985,6.37144423 11.5656226,6.69125184 L11.5111865,7.05748139 L12.33562,7.05748139 L13.0209226,0.0474138041 L13.7625392,0.0474138041 L13.5330717,7.10294146 C13.7671825,7.51558154 13.983644,7.91598356 14.182456,8.30414751 C14.2502964,8.24661392 14.326053,8.19931419 14.409361,8.16395202 C15.0336174,7.89897093 15.8454978,8.40462978 16.2227468,9.29337267 C16.5999958,10.1821156 16.3997568,11.1173937 15.7755004,11.3823747 C15.6838185,11.4212914 15.5880895,11.4435857 15.4902848,11.4504854 C16.1697005,13.7396709 15.9179947,15.3832179 14.7351673,16.3811265 C11.9791962,18.7062395 5.22557788,18.7178361 2.45586122,16.3811265 C1.40244737,15.4923994 1.083223,14.0991706 1.49818811,12.20144 C1.41716514,12.1914051 1.33781552,12.1705022 1.26128573,12.1380172 C0.637029395,11.8730362 0.436790366,10.9377581 0.814039343,10.0490152 C1.19128832,9.16027227 2.00316879,8.65461342 2.62742513,8.91959452 C2.64721128,8.92799324 2.66657146,8.93706535 2.68550079,8.94678802 C2.9728403,8.34823258 3.30560398,7.7184637 3.68379183,7.05748139 L3.76934897,7.05748139 L3.5401645,0.0106568176 L4.28178103,0.0106568176 L4.97067701,7.05748139 L5.67455309,7.05748139 L4.6913921,0.443080409 L5.23279003,0.443080409 L6.28987316,7.05748139 L10.8958664,7.05748139 L10.9049463,7.00066652 Z" id="Combined-Shape"></path>
                        </g>
                    </g>
                </g>
            </g>
        </g>
    </g>
</svg>
