<?xml version="1.0" encoding="UTF-8"?>
<svg width="900px" height="600px" viewBox="0 0 900 600" version="1.1" xmlns="http://www.w3.org/2000/svg" xmlns:xlink="http://www.w3.org/1999/xlink">
    <!-- Generator: Sketch 49.1 (51147) - http://www.bohemiancoding.com/sketch -->
    <title>balloon</title>
    <style>
      .floating-balloon {
        animation: float 6s ease-in-out infinite;
      }

      @keyframes float {
        0% {
          transform: translate(410px,116px);
        }
        50% {
          transform: translate(410px,136px);
        }
        100% {
          transform: translate(410px,116px);
        }
      }
    </style>
    <defs>
        <radialGradient cx="107.829038%" cy="63.264759%" fx="107.829038%" fy="63.264759%" r="362.616428%" gradientTransform="translate(1.078290,0.632648),scale(0.661521,1.000000),rotate(150.360958),translate(-1.078290,-0.632648)" id="radialGradient-1">
            <stop stop-color="#FAD961" offset="0%"></stop>
            <stop stop-color="#F76B1C" offset="100%"></stop>
        </radialGradient>
        <linearGradient x1="47.4136293%" y1="0%" x2="47.413628%" y2="83.1035575%" id="linearGradient-2">
            <stop stop-color="#FAD961" offset="0%"></stop>
            <stop stop-color="#E86318" offset="100%"></stop>
        </linearGradient>
        <path d="M-2.66453526e-15,0 L12.3366897,23.4342144 C13.6267635,28.20942 14.7284775,30.9234734 15.6418318,31.5763746 C17.0118633,32.5557265 19.2237161,31.5763746 22.9551988,31.5763746 C26.6866814,31.5763746 28.4650714,46.5358057 31.4739557,49.1756315 C34.48284,51.8154572 42.8232565,52.1939971 50.2010757,55.4803737 C57.5788949,58.7667503 62.7081004,79.4655511 67.3646363,83.5476876 C72.0211723,87.6298241 84.2673716,85.1309013 90.0813047,90.441242 C95.8952377,95.7515827 95.8784411,100.525765 98.8895012,104.536899 C101.900561,108.548032 103.661171,112.244296 118.791593,114.956808 C133.922015,117.66932 138.429708,116.898891 155.695119,116.898891 C172.960531,116.898891 183.941558,117.659176 192.226608,114.956808 C200.511659,112.254439 195.356092,107.850402 211.916727,101.200664 C228.477363,94.5509264 238.751023,97.0481742 253.280645,90.441242 C267.810268,83.8343098 265.054569,80.2297465 271.048343,75.4353139 C277.042117,70.6408813 282.389389,70.9651089 285.84259,66.5919911 C289.295791,62.2188733 288.748192,50.3946452 289.328403,49.1756315 C289.908614,47.9566177 292.918881,48.7973768 295.333355,47.0858601 C297.747828,45.3743434 300.161859,33.7306571 302.581262,31.5763746 C305.000665,29.4220921 309.72853,32.8425959 313.384514,29.4052076 C315.821837,27.1136154 316.049826,19.5698086 314.068481,6.77378727 L320,0 L294.514024,3.10015568 L129.930677,13.7655377 L27.7086657,3.10015568 L-2.66453526e-15,0 Z" id="path-3"></path>
        <path d="M44.5068392,-2.84217094e-14 L47.4698475,-2.84217094e-14 C48.662509,1.21675447 49.1579648,2.99916427 48.9562148,5.34722943 C48.6535899,8.86932715 36.6014623,12.2357942 36.1347771,18.9708611 C35.668092,25.705928 43.0899457,25.9056678 44.5068392,32.3214503 C45.9237327,38.7372327 41.9416472,41.9167855 35.4892745,51.6385055 C29.0369019,61.3602255 33.5219351,118.167695 32.8850141,124.039933 C32.2480931,129.912172 30.1460105,121.290885 29.0401952,121.332735 C27.319467,121.397855 30.1854172,140.424807 25.4633086,141.906131 C20.7412,143.387454 21.0289661,126.802828 15.8773342,129.760517 C9.35926127,133.502716 13.8257151,120.44529 8.98269735,120.44529 C8.20463411,120.44529 8.60544897,125.549753 4.25099462,124.794843 C-0.103459732,124.039933 -3.07871805,61.2602935 5.47144008,49.639558 C14.0215982,38.0188225 22.1247586,37.5616459 23.3924884,32.3214503 C24.6602182,27.0812546 18.7300727,23.6205084 22.5930812,18.9708611 C26.4560897,14.3212137 42.5258744,7.50216724 44.3054088,4.64451229 C45.4917651,2.73940899 45.5589086,1.19123823 44.5068392,-2.84217094e-14 Z" id="path-5"></path>
        <path d="M61.4729733,150 L66.6705928,149.186877 C102.122411,126.187295 120.843228,99.8835323 122.833044,70.2755906 C125.607445,28.9932277 93.3279108,0 61.4729733,0 C29.6180359,0 -2.13696526,28.9453762 0.112902595,70.2755906 C1.62558229,98.0636118 20.3723143,124.388436 56.3530986,149.250064 L61.4729733,150 Z" id="path-7"></path>
        <linearGradient x1="50%" y1="2.14956647%" x2="50%" y2="98.7185411%" id="linearGradient-9">
            <stop stop-color="#7BE1E4" offset="0%"></stop>
            <stop stop-color="#2B77C3" offset="100%"></stop>
        </linearGradient>
        <linearGradient x1="13.9530412%" y1="6.12538352%" x2="100%" y2="160.517846%" id="linearGradient-10">
            <stop stop-color="#FFFFFF" offset="0%"></stop>
            <stop stop-color="#E1E1E1" offset="100%"></stop>
        </linearGradient>
    </defs>
    <g id="balloon" stroke="none" stroke-width="1" fill="none" fill-rule="evenodd">
        <rect id="bg" fill="url(#radialGradient-1)" x="-3" y="0" width="907" height="600"></rect>
        <g id="land" transform="translate(451.500000, 334.500000) rotate(-360.000000) translate(-451.500000, -334.500000) translate(289.000000, 154.000000)">
            <ellipse id="Oval-11" cx="160" cy="155.5" rx="160" ry="155.5"></ellipse>
            <g id="hotAirBalloon_land" transform="translate(3.000000, 186.000000)">
                <g id="Land" transform="translate(0.000000, 0.000000)">
                    <g id="Group-2" transform="translate(0.000000, 0.000000)">
                        <g id="Group-3" transform="translate(2.000000, 33.000000)">
                            <mask id="mask-4" fill="white">
                                <use xlink:href="#path-3"></use>
                            </mask>
                            <use id="Path-3" fill="url(#linearGradient-2)" xlink:href="#path-3"></use>
                            <polygon id="Path-7" fill="#0E152D" opacity="0.15" mask="url(#mask-4)" points="24.3792753 34.886953 21 12 31 15.7025986 31 50"></polygon>
                            <polygon id="Path-6" fill="#0E152D" opacity="0.15" mask="url(#mask-4)" points="67 85 52 59.5594279 53.616398 24 67 27.862105"></polygon>
                            <path d="M216,39.7747745 L216,103.829135 C206.329763,111.244105 199.524563,115.807372 195.584398,117.518936 C191.644233,119.2305 181.727348,121.057521 165.833744,123 L159,36 L216,39.7747745 Z" id="Path-4-Copy" fill="#0E152D" opacity="0.15" mask="url(#mask-4)"></path>
                            <polygon id="Path-4-Copy-2" fill="#0E152D" opacity="0.15" mask="url(#mask-4)" points="290 15 288.599256 67.5215973 267.788124 77 265 17.9748341"></polygon>
                            <polygon id="Path-4-Copy-3" fill="#0E152D" opacity="0.15" mask="url(#mask-4)" points="319 -1 314.2685 31.0991108 301.566348 35 300 2.04486409"></polygon>
                            <path d="M89,36 L89,90.5619962 C93.1136022,98.3932358 96.2802688,103.619549 98.5,106.240935 C100.719731,108.862321 103.886398,111.115343 108,113 L98.1509333,44.9077302 L89,36 Z" id="Path-5-Copy" fill="#0E152D" opacity="0.15" mask="url(#mask-4)"></path>
                            <path d="M8.87868495,21.0256006 L29.0382781,34.6256722 C29.1407646,34.6948117 29.247427,34.75755 29.3576549,34.8135283 L67.2698127,54.0668712 C67.5911918,54.2300807 67.8805283,54.4498706 68.1239509,54.7157038 L86.0070109,74.2451637 C86.3218943,74.5890368 86.7125966,74.8547807 87.1481082,75.0213037 L136.396416,93.8519719 C137.194591,94.1571631 138.085035,94.1074882 138.844311,93.715412 L174.621344,75.2408058 C175.214644,74.9344365 175.893198,74.834761 176.549541,74.9575651 L221.10248,83.2935803 C221.738098,83.4125068 222.39513,83.3228725 222.975666,83.0380346 L255.910648,66.8785949 C256.321934,66.6767987 256.773973,66.5718773 257.232098,66.5718773 L267.573998,66.5718773 C268.257283,66.5718773 268.920096,66.3386259 269.452792,65.9107087 L294.688569,45.6386926 C294.96272,45.4184655 295.196017,45.1517531 295.377807,44.8507354 L304.648799,29.499261 C304.66312,29.4755467 304.677112,29.4516352 304.690771,29.4275334 L318.833119,4.47287591 C319.650029,3.03141004 319.143727,1.20063457 317.702261,0.383724452 C317.242765,0.123317834 316.722664,-0.0111664396 316.194533,-0.00613454391 L4.80258331,2.96072283 C3.14580426,2.97650817 1.81551602,4.3323895 1.83130135,5.98916855 C1.83529473,6.40830092 1.92707339,6.8219453 2.10072062,7.20343518 L7.82601022,19.7814653 C8.05537721,20.2853673 8.41971348,20.7159691 8.87868495,21.0256006 Z" id="Path-5" fill-opacity="0.2" fill="#452A06" mask="url(#mask-4)"></path>
                            <path d="M6.95569947,4.36644469 L27.8245677,18.469824 C27.9270851,18.5391063 28.0337907,18.6019798 28.1440728,18.6580843 L66.0893221,37.9622 C66.4107339,38.1257138 66.700032,38.3458371 66.943334,38.612007 L84.842861,58.1939063 C85.1576405,58.5382718 85.5483999,58.8044735 85.9840873,58.9713573 L135.274286,77.8512637 C136.073556,78.1574127 136.965534,78.1075939 137.725742,77.7143447 L173.532565,59.1917628 C174.126592,58.8844777 174.806265,58.784499 175.463616,58.9077086 L220.053405,67.2653246 C220.690009,67.3846456 221.348135,67.2947354 221.929407,67.0090334 L254.892088,50.8074951 C255.303867,50.6051009 255.756584,50.499856 256.215414,50.499856 L266.565183,50.499856 C267.249353,50.499856 267.91297,50.2660008 268.445988,49.8370708 L293.704397,29.5111082 C293.978295,29.2906965 294.211319,29.0238559 294.392831,28.7227665 L303.659524,13.3513637 C303.682484,13.3132774 303.706289,13.2757064 303.73092,13.2386784 L308.771198,5.6615585 C309.688852,4.2820375 309.314434,2.41980968 307.934913,1.50215626 C307.442642,1.17469929 306.864589,1 306.273355,1 L4.91944683,1 C4.41346761,1 4.00329041,1.4101772 4.00329041,1.91615642 C4.00329041,2.22322222 4.15712277,2.50986848 4.41300767,2.67961039 L6.93425921,4.35208908 C6.94142651,4.35684353 6.94857333,4.36162877 6.95569947,4.36644469 Z" id="Path-5-Copy-2" fill-opacity="0.2" fill="#452106" mask="url(#mask-4)"></path>
                        </g>
                        <g id="mountains" transform="translate(0.000000, 0.000000)">
                            <g id="Group-18" transform="translate(0.000000, 0.000000)">
                                <path d="M4,31.9482778 C13.9330024,20.1104717 22.2403749,13.6058868 28.9221173,12.4345231 C38.9447309,10.6774777 49.8585437,24.7307066 59.6555958,22.1914005 C69.4526479,19.6520943 85.6431386,4 97.9432924,4 C110.243446,4 119.989682,17.9741389 124.608266,17.9741389 C129.226851,17.9741389 132.556034,10.0752529 140.9145,10.0752529 C146.486811,10.0752529 156.848645,18.383502 172,35 L8.64210284,35 L4,31.9482778 Z" id="Path-9" fill="#FAD45E"></path>
                                <path d="M0,32.9482778 C9.93300245,21.1104717 18.2403749,14.6058868 24.9221173,13.4345231 C34.9447309,11.6774777 45.8585437,25.7307066 55.6555958,23.1914005 C65.4526479,20.6520943 81.6431386,5 93.9432924,5 C106.243446,5 115.989682,18.9741389 120.608266,18.9741389 C125.226851,18.9741389 128.556034,11.0752529 136.9145,11.0752529 C142.486811,11.0752529 152.848645,19.383502 168,36 L4.64210284,36 L0,32.9482778 Z" id="Path-9-Copy" fill-opacity="0.2" fill="#B7BB0F"></path>
                                <path d="M234.788242,15.3169006 C245.60825,7.97988921 255.556932,4.55624325 264.634288,5.04596271 C281.051389,5.93165822 290.540541,23.1191832 293.559206,24.4439489 C296.577872,25.7687147 298.454847,20.3418121 304.589199,21 C308.678767,21.4387919 312.482368,25.7203234 316,33.8445942 L257.707644,36.9009514 C258.137826,37.3811135 258.568611,37.8659616 259,38.3554956 L139.320119,41 L130,35.8625128 C154.988207,11.9541709 177.101963,5.80843244e-16 196.341268,0 C208.499236,0 221.314894,5.10563353 234.788242,15.3169006 Z" id="Combined-Shape" fill="#FAD45E"></path>
                                <path d="M223.788242,21.3169006 C234.60825,13.9798892 244.556932,10.5562432 253.634288,11.0459627 C270.051389,11.9316582 279.540541,29.1191832 282.559206,30.4439489 C285.577872,31.7687147 287.454847,26.3418121 293.589199,27 C297.678767,27.4387919 301.482368,31.7203234 305,39.8445942 L246.707644,42.9009514 C247.137826,43.3811135 247.568611,43.8659616 248,44.3554956 L128.320119,47 L119,41.8625128 C143.988207,17.9541709 166.101963,6 185.341268,6 C197.499236,6 210.314894,11.1056335 223.788242,21.3169006 Z" id="Combined-Shape-Copy" fill-opacity="0.2" fill="#B7BB0F"></path>
                                <ellipse id="Oval-5" fill="#D68112" cx="171" cy="15" rx="3" ry="2"></ellipse>
                                <ellipse id="Oval-5-Copy-12" fill="#D68112" cx="161.5" cy="17.5" rx="2.5" ry="1.5"></ellipse>
                            </g>
                        </g>
                        <path d="M1,32 C2.08014199,36.4263075 3.60731584,39.3265537 5.58152156,40.7007386 C8.54283013,42.762016 16.3286405,46.8266992 22.3005934,46.8266992 C28.2725464,46.8266992 27.7095191,53.7046395 37.629049,58.0481927 C47.5485789,62.391746 54.3466134,57.0908006 62.365358,60.2845619 C70.3841027,63.4783232 71.5806176,69.4531537 79.9609257,73.0546409 C85.5477977,75.4556323 96.0784484,78.2451488 111.552878,81.4231904 C128.192279,83.9963445 142.421395,84.6423707 154.240225,83.3612692 C171.96847,81.439617 164.808378,76.6371838 174.809342,74.7025598 C184.810307,72.7679359 196.845584,72.6620061 207.519946,73.0546409 C218.194308,73.4472757 214.251752,76.4991384 223.652011,76.4991384 C233.052269,76.4991384 237.359957,73.0546409 257.0642,69.4831062 C276.768442,65.9115716 262.017974,63.1275635 273.118024,58.0481927 C276.79863,56.3639511 281.113469,57.022835 286.851797,54.6117161 C292.590125,52.2005972 295.483497,46.9438942 300.747435,43.0657549 C304.256727,40.4803287 310.674249,37.3094662 320,33.5531674 L1,32 Z" id="Path-2" fill="#FAD45E"></path>
                    </g>
                    <g id="tree-copy-7" transform="translate(289.000000, 12.000000)">
                        <ellipse id="Oval-2" fill="#D68112" cx="7.5" cy="11" rx="7.5" ry="11"></ellipse>
                        <path d="M7.5020418,15.9217339 C7.50287907,15.9044389 7.50371572,15.8871745 7.50455178,15.8699406 C7.47510179,15.8775465 7.44555165,15.8851757 7.41590137,15.8928281 C7.44451911,15.9024269 7.47323259,15.9120621 7.5020418,15.9217339 Z M7.46048203,16.7947568 C3.15349401,15.1523423 1,14.2325837 1,14.035481 C1,13.8455325 3,14.4182552 7,15.7536492 L7,15.2109274 C7.18439731,15.1748716 7.36515152,15.1396211 7.54226261,15.1051757 C7.56592639,14.6333521 7.58908521,14.1871331 7.61173907,13.7665189 C3.87057969,11.5129229 2,10.2711259 2,10.041128 C2,9.80941216 3.89862652,10.5568152 7.69587955,12.283337 C7.81222472,10.3483647 7.91359821,9.17254988 8,8.75589235 C8.34284472,7.10258374 8.57785849,5.52870084 8.85928616,6.13136279 C8.95958422,6.34614558 9.00626442,8.52932529 8.99932675,12.6809019 C12.3331089,11.3983292 14,10.8497342 14,11.035117 C14,11.2205397 12.3323887,12.0606929 8.99716623,13.5555764 C8.9958564,13.9622775 8.99409248,14.3856485 8.99187449,14.8256895 C12.3306248,14.1883597 14,13.9199845 14,14.020564 C14,14.1211795 12.3294297,14.609058 8.98828905,15.4841995 C8.98147616,16.6518593 8.9716907,17.9286467 8.95893267,19.314562 C11.6529776,18.2949495 13,17.8684678 13,18.035117 C13,18.2019244 11.6504177,18.898599 8.95125314,20.1251408 C8.92853688,22.4586257 8.89788123,25.0835788 8.85928616,28 L7,28 C7.09881574,25.3548903 7.19230136,22.9800504 7.28045687,20.8754802 C7.18809,20.9165476 7.09460437,20.9580542 7,21 L7,20.5543062 C3.66666667,19.060217 2,18.2204872 2,18.035117 C2,17.8438029 3.77526101,18.4341849 7.32578304,19.8062628 C7.37222605,18.7241702 7.41712571,17.7203349 7.46048203,16.7947568 Z" id="Combined-Shape" fill="#064245"></path>
                    </g>
                    <g id="tree-copy-4" transform="translate(80.000000, 15.000000)">
                        <ellipse id="Oval-2" fill="#D68112" cx="8.5" cy="13.5" rx="8.5" ry="13.5"></ellipse>
                        <path d="M8.48608262,18.5839289 C8.5262411,17.552487 8.56503733,16.6058186 8.6024713,15.7439238 C4.20082377,12.9042934 2,11.3401221 2,11.0514099 C2,10.7608357 4.22930371,11.7020277 8.68791112,13.874986 C8.8076018,11.4028088 8.91163143,9.90522394 9,9.38223152 C9.34284472,7.35317095 9.57785849,5.4215874 9.85928616,6.16121796 C9.96033805,6.42679619 10.0069631,9.14458374 9.99916123,14.3145806 C13.9997204,12.5520581 16,11.7961388 16,12.0468226 C16,12.2975607 13.9988544,13.4462202 9.99656315,15.4928011 C9.99469022,16.1486306 9.99205181,16.8389494 9.9886479,17.5637576 C14.6628826,16.3748351 17,15.8638646 17,16.030846 C17,16.1978943 14.6610074,17.0765975 9.98302214,18.6669556 C9.97675061,19.8104473 9.96874158,21.0322224 9.95899505,22.3322808 C13.9863317,20.5571206 16,19.7953012 16,20.0468226 C16,20.2985352 13.9832694,21.4551622 9.94980823,23.5167036 C9.92724292,26.3349908 9.8970689,29.4960896 9.85928616,33 L8,33 C8.10669223,29.4949723 8.20717077,26.3766247 8.30143562,23.6449573 C4.10047854,21.5030867 2,20.3037084 2,20.0468226 C2,19.7890991 4.11420017,20.5953071 8.34260052,22.4654468 C8.3763558,21.5094448 8.40928251,20.6050052 8.44138065,19.7521279 C3.48046022,17.5460813 1,16.3111413 1,16.047308 C1,15.7826834 3.49536087,16.6282237 8.48608262,18.5839289 Z" id="Combined-Shape" fill="#064245"></path>
                    </g>
                    <ellipse id="Oval-5-Copy-10" fill-opacity="0.15" fill="#064245" cx="78" cy="46.5" rx="11" ry="1"></ellipse>
                    <g id="tree-copy-8" transform="translate(259.000000, 18.000000)">
                        <ellipse id="Oval-2" fill="#D68112" cx="7.5" cy="11" rx="7.5" ry="11"></ellipse>
                        <path d="M7.5020418,15.9217339 C7.50287907,15.9044389 7.50371572,15.8871745 7.50455178,15.8699406 C7.47510179,15.8775465 7.44555165,15.8851757 7.41590137,15.8928281 C7.44451911,15.9024269 7.47323259,15.9120621 7.5020418,15.9217339 Z M7.46048203,16.7947568 C3.15349401,15.1523423 1,14.2325837 1,14.035481 C1,13.8455325 3,14.4182552 7,15.7536492 L7,15.2109274 C7.18439731,15.1748716 7.36515152,15.1396211 7.54226261,15.1051757 C7.56592639,14.6333521 7.58908521,14.1871331 7.61173907,13.7665189 C3.87057969,11.5129229 2,10.2711259 2,10.041128 C2,9.80941216 3.89862652,10.5568152 7.69587955,12.283337 C7.81222472,10.3483647 7.91359821,9.17254988 8,8.75589235 C8.34284472,7.10258374 8.57785849,5.52870084 8.85928616,6.13136279 C8.95958422,6.34614558 9.00626442,8.52932529 8.99932675,12.6809019 C12.3331089,11.3983292 14,10.8497342 14,11.035117 C14,11.2205397 12.3323887,12.0606929 8.99716623,13.5555764 C8.9958564,13.9622775 8.99409248,14.3856485 8.99187449,14.8256895 C12.3306248,14.1883597 14,13.9199845 14,14.020564 C14,14.1211795 12.3294297,14.609058 8.98828905,15.4841995 C8.98147616,16.6518593 8.9716907,17.9286467 8.95893267,19.314562 C11.6529776,18.2949495 13,17.8684678 13,18.035117 C13,18.2019244 11.6504177,18.898599 8.95125314,20.1251408 C8.92853688,22.4586257 8.89788123,25.0835788 8.85928616,28 L7,28 C7.09881574,25.3548903 7.19230136,22.9800504 7.28045687,20.8754802 C7.18809,20.9165476 7.09460437,20.9580542 7,21 L7,20.5543062 C3.66666667,19.060217 2,18.2204872 2,18.035117 C2,17.8438029 3.77526101,18.4341849 7.32578304,19.8062628 C7.37222605,18.7241702 7.41712571,17.7203349 7.46048203,16.7947568 Z" id="Combined-Shape" fill="#064245"></path>
                    </g>
                    <g id="tree-copy-3" transform="translate(64.000000, 20.000000)">
                        <ellipse id="Oval-2" fill="#D68112" cx="11" cy="16.5" rx="11" ry="16.5"></ellipse>
                        <path d="M9.74779888,21.9914928 C9.81356254,20.6290709 9.87685609,19.3918992 9.93767952,18.2799776 C5.31255984,15.133324 3,13.3938955 3,13.0616919 C3,12.7265644 5.35344879,13.7568155 10.0603464,16.1524454 C10.227954,13.411884 10.3745052,11.739015 10.5,11.1338385 C11.0142671,8.65387561 11.3667877,6.29305126 11.7889292,7.19704418 C11.9388984,7.5181949 12.0089509,10.7732112 11.9990869,16.9620932 C16.6663623,14.7097826 19,13.7419276 19,14.0585283 C19,14.3752127 16.6651263,15.8377823 11.995379,18.4462369 C11.9932782,19.0749942 11.9904612,19.7300476 11.9869278,20.4113969 C17.3289759,19.3313639 20,18.8711803 20,19.030846 C20,19.1905704 17.3270127,20.0009148 11.9810381,21.4618793 C11.9716871,23.0173137 11.9588776,24.6997166 11.9426096,26.509088 C15.9808699,24.580887 18,23.7640338 18,24.0585283 C18,24.3533425 15.9764832,25.6412374 11.9294495,27.9222128 C11.8951303,31.4884797 11.8482902,35.5144088 11.7889292,40 L9,40 C9.16677642,35.5357118 9.32343094,31.5846669 9.46996356,28.1468652 C5.15665452,25.7256657 3,24.3628867 3,24.0585283 C3,23.7527423 5.17693268,24.64516 9.53079804,26.7357815 C9.58194432,25.5632693 9.6318084,24.4557722 9.68039028,23.4132903 C3.89346343,20.8291067 1,19.3777216 1,19.0591349 C1,18.7393137 3.91593296,19.7167663 9.74779888,21.9914928 Z" id="Combined-Shape" fill="#064245"></path>
                    </g>
                    <g id="tree-copy" transform="translate(215.000000, 18.000000)">
                        <ellipse id="Oval-2" fill="#D68112" cx="11" cy="16" rx="11" ry="16"></ellipse>
                        <path d="M10.7235626,23.027314 C10.8076009,21.3168098 10.8876787,19.8010453 10.9637959,18.4800205 C5.65459863,15.8072537 3,14.3310502 3,14.0514099 C3,13.7698593 5.69099357,14.6447596 11.0729807,16.6761111 C11.2353288,14.1364631 11.3776685,12.5806163 11.5,12.0085707 C12.0142671,9.60375816 12.3667877,7.31447395 12.7889292,8.19107314 C12.9418346,8.50858925 13.0116634,11.7835587 12.9984156,18.0159816 C18.3328052,15.7252318 21,14.739414 21,15.0585283 C21,15.377733 18.331292,16.8611341 12.9938759,19.5087314 C12.9914573,20.1297846 12.9883223,20.7763402 12.9844709,21.4483983 C18.9948236,20.3418861 22,19.8693687 22,20.030846 C22,20.1923819 18.9926396,21.01938 12.9779189,22.5118402 C12.967583,24.0837495 12.9536186,25.7848329 12.9360255,27.6150903 C17.6453418,25.6108803 20,24.758693 20,25.0585283 C20,25.3586654 17.6405981,26.6880673 12.9217944,29.0467338 C12.8882787,32.3143263 12.8439903,35.9654151 12.7889292,40 L10,40 C10.1548882,35.9795765 10.301046,32.3884189 10.4384735,29.2265272 C5.47949118,26.7555418 3,25.3662089 3,25.0585283 C3,24.749555 5.50036984,25.6638942 10.5011095,27.8015458 C10.5535906,26.6213714 10.6047475,25.5063123 10.65458,24.4563685 C4.21819332,21.8452321 1,20.3794876 1,20.0591349 C1,19.7376399 4.24118753,20.7270329 10.7235626,23.027314 Z" id="Combined-Shape" fill="#064245"></path>
                    </g>
                    <ellipse id="Oval-5-Copy-6" fill-opacity="0.15" fill="#064245" cx="269.5" cy="52.5" rx="10.5" ry="1"></ellipse>
                    <ellipse id="Oval-5-Copy-7" fill-opacity="0.15" fill="#064245" cx="287.5" cy="39.5" rx="10.5" ry="1"></ellipse>
                    <ellipse id="Oval-5-Copy-8" fill-opacity="0.15" fill="#064245" cx="257.5" cy="45.5" rx="10.5" ry="1"></ellipse>
                    <g id="tree-copy-10" transform="translate(29.000000, 17.000000)">
                        <ellipse id="Oval-2" fill="#D68112" cx="5" cy="8" rx="5" ry="8"></ellipse>
                        <path d="M5.98913415,10.9961507 C5.9874897,11.3204413 5.9856586,11.654699 5.98364085,11.9989237 C7.99454695,11.2310244 9,10.9058536 9,11.0234113 C9,11.1406498 8,11.6505039 6,12.5529737 L6,13 C5.99248788,12.9966693 5.98498635,12.9933427 5.97749539,12.9900203 C5.96597087,14.7569911 5.9500201,16.7603177 5.92964308,19 L5,19 C5.05926196,16.6926107 5.1146898,14.6680051 5.16628351,12.9261834 C5.11144401,12.9505579 5.05601618,12.9751635 5,13 L5,12.5529737 C3,11.6505039 2,11.1406498 2,11.0234113 C2,10.9024766 3.064049,11.2500718 5.192147,12.0661969 C5.2043526,11.6667261 5.2163324,11.2839089 5.2280864,10.9177451 C5.15294502,10.9448754 5.07691622,10.9722937 5,11 L5,10.6434776 C2.33333333,9.68593362 1,9.14599241 1,9.02365398 C1,8.89794132 2.40789737,9.27331794 5.22369212,10.1497839 C5.23364164,10.1470684 5.24357562,10.1443578 5.25349405,10.141652 C5.27305928,9.55623028 5.29196221,9.01965575 5.31020285,8.53192844 C3.10340095,7.02679937 2,6.19310521 2,6.03084597 C2,5.86757912 3.11714743,6.3524374 5.35144229,7.48542081 C5.40814915,6.12825677 5.45766838,5.30121161 5.5,5.00428535 C5.67142236,3.80187908 5.78892925,2.65723698 5.92964308,3.09553657 C5.97955576,3.25100604 6.00291161,4.82457468 5.99971063,7.8162425 L6,7.90819551 L6,8 C8.66666667,6.8176495 10,6.15878661 10,6.02341131 C10,5.88803601 8.66666667,6.33976384 6,7.37859478 L6,7.90819551 L6,9 C5.99909461,8.9993885 5.99818937,8.99877709 5.99728428,8.99816577 C5.99639702,9.30076592 5.99529234,9.61497559 5.99397025,9.94079479 C8.66465675,9.2208705 10,8.9141269 10,9.02056398 C10,9.12692093 8.66666667,9.66599894 6,10.637798 L6,11 C5.99637608,10.9987163 5.99275413,10.9974332 5.98913415,10.9961507 Z" id="Combined-Shape" fill="#064245"></path>
                    </g>
                    <g id="tree-copy-6" transform="translate(270.000000, 18.000000)">
                        <ellipse id="Oval-2" fill="#D68112" cx="9.5" cy="14.5" rx="9.5" ry="14.5"></ellipse>
                        <path d="M9.98212356,20.7795151 C9.98807941,20.7815986 9.99403823,20.7836832 10,20.7857691 L10,22 C9.99180166,21.9967732 9.98360893,21.9935483 9.97542179,21.9903254 C9.97102328,22.7421933 9.96603441,23.5226306 9.96045516,24.3316372 C13.9868184,22.5569365 16,21.7953316 16,22.0468226 C16,22.2984892 13.9840062,23.4547396 9.95201872,25.5155738 C9.92922737,28.617459 9.89831652,32.1122678 9.85928616,36 L8,36 C8.11037172,32.1055092 8.21409377,28.655482 8.31116615,25.6499182 C4.10372205,23.5049386 2,22.3039067 2,22.0468226 C2,21.7889542 4.11657759,22.5962138 8.34973276,24.4686014 C8.38571717,23.3785308 8.4207534,22.3518363 8.45484145,21.3885181 C3.48494715,19.410014 1,18.2962773 1,18.047308 C1,17.7976638 3.49843666,18.5360492 8.49530998,20.2624642 C8.54257099,18.9683986 8.58792545,17.8017663 8.63137337,16.7625673 C4.21045779,13.9111392 2,12.3407534 2,12.0514099 C2,11.7602664 4.23804792,12.7057206 8.71414375,14.8877725 C8.82286486,12.5713966 8.91815027,11.1530615 9,10.6327672 C9.34284472,8.45340584 9.57785849,6.37874202 9.85928616,7.17316004 C9.9806176,7.51565614 10.0234849,11.6552314 9.98788809,19.5918859 C15.329296,18.3829002 18,17.8625536 18,18.030846 C18,18.1991948 15.3275046,19.0903217 9.98251391,20.7042267 C9.98238451,20.7292881 9.9822544,20.7543842 9.98212356,20.7795151 Z M17,13.0468226 C17,13.3175732 14.6666667,14.635299 10,17 L10,15.7571896 C14.6666667,13.6795277 17,12.776072 17,13.0468226 Z" id="Combined-Shape" fill="#064245"></path>
                    </g>
                    <g id="tree" transform="translate(237.000000, 13.000000)">
                        <ellipse id="Oval-2" fill="#D68112" cx="14.5" cy="21.5" rx="14.5" ry="21.5"></ellipse>
                        <path d="M12.9834741,29.8103062 C13.0785682,27.8742657 13.1698186,26.128698 13.2572253,24.5736031 C6.4190751,20.6410739 3,18.4738642 3,18.0719739 C3,17.667096 6.47009902,18.9704007 13.4102971,21.9818882 C13.6352335,18.3776491 13.8318012,16.179192 14,15.3865169 C14.6856894,12.15505 15.155717,9.07882437 15.7185723,10.2567545 C15.9163007,10.6705558 16.0098376,14.8224617 15.9991828,22.7124725 C22.6663943,19.8970718 26,18.6829923 26,19.0702339 C26,19.457554 22.6650436,21.2732628 15.9951308,24.5173601 C15.991742,25.6171872 15.9865842,26.7804782 15.9796575,28.0072332 C23.3265525,26.4775303 27,25.8221619 27,26.041128 C27,26.2601812 23.323625,27.3970296 15.9708751,29.4516731 C15.9590045,31.2786287 15.9435055,33.2357674 15.9243778,35.3230891 C21.9747926,32.7856242 25,31.7013391 25,32.0702339 C25,32.4394655 21.9692662,34.1067848 15.9077985,37.0721917 C15.8618768,41.7660332 15.7988014,47.0753027 15.7185723,53 L12,53 C12.2259714,47.0886487 12.438006,41.8679153 12.6361039,37.3377998 C6.21203464,34.2062043 3,32.450349 3,32.0702339 C3,31.6885989 6.23777354,32.8622514 12.7133206,35.5911915 C12.7768594,34.1700577 12.83891,32.8226691 12.8994724,31.5490255 C4.9664908,28.289566 1,26.4635448 1,26.0709619 C1,25.6769958 4.99449136,26.9234439 12.9834741,29.8103062 Z" id="Combined-Shape" fill="#064245"></path>
                    </g>
                    <g id="tree-copy-9" transform="translate(98.000000, 26.000000)">
                        <ellipse id="Oval-2" fill="#D68112" cx="11" cy="16" rx="11" ry="16"></ellipse>
                        <path d="M9.72574634,21.982892 C9.81032997,20.2632811 9.89089491,18.741268 9.96744115,17.4168528 C5.32248038,14.783987 3,13.3288394 3,13.0514099 C3,12.7718334 5.35856844,13.6325476 10.0757053,15.6335525 C10.2369218,13.1190746 10.3783534,11.577414 10.5,11.0085707 C11.0142671,8.60375816 11.3667877,6.31447395 11.7889292,7.19107314 C11.9413955,7.50767746 12.0112617,10.7647741 11.9985276,16.9623631 C16.6661759,14.7098599 19,13.741915 19,14.0585283 C19,14.3752413 16.6647048,15.8380463 11.9941145,18.4469432 C11.9917077,19.0756358 11.9885628,19.7306052 11.9846798,20.4118514 C17.3282266,19.331493 20,18.8711579 20,19.030846 C20,19.1905982 17.3260805,20.0011974 11.9782415,21.4626436 C11.9680676,23.0186696 11.9543258,24.701708 11.9370163,26.5117588 C15.9790054,24.5816413 18,23.7638978 18,24.0585283 C18,24.3534983 15.9743438,25.6425989 11.9230314,27.92583 C11.8893711,31.2241918 11.8446704,34.9155818 11.7889292,39 L9,39 C9.15644182,34.939248 9.30397732,31.3164169 9.44260648,28.1315067 C5.14753549,25.7199021 3,24.3622426 3,24.0585283 C3,23.7533563 5.16819857,24.6415808 9.50459571,26.7232016 C9.55674758,25.5519888 9.60758879,24.4452208 9.65711934,23.4028977 C3.88570645,20.8252152 1,19.3772942 1,19.0591349 C1,18.7397171 3.90858211,19.7143028 9.72574634,21.982892 Z" id="Combined-Shape" fill="#064245"></path>
                    </g>
                    <ellipse id="Oval-5-Copy-2" fill-opacity="0.15" fill="#064245" cx="94.5" cy="64" rx="14.5" ry="1"></ellipse>
                    <path d="M64.7663999,61 C68.7767661,61 76,60.8701964 76,60.2048024 C76,59.5394084 66.1012445,59 61.412036,59 C58.5522834,59 60.5438977,59.5064351 62.9055751,60.2048024 C63.3109454,60.3246737 63.2017888,61 64.7663999,61 Z" id="Oval-5-Copy-11" fill-opacity="0.15" fill="#064245"></path>
                    <path d="M36.4601691,55 C39.8949108,55 51,54.5522847 51,54 C51,53.4477153 44.490296,53 36.4601691,53 C28.4300422,53 33.0254273,55 36.4601691,55 Z" id="Oval-5-Copy-2" fill-opacity="0.15" fill="#064245"></path>
                    <ellipse id="Oval-5-Copy-9" fill-opacity="0.15" fill="#064245" cx="13.5" cy="39.5" rx="6.5" ry="1"></ellipse>
                    <ellipse id="Oval-5-Copy-10" fill-opacity="0.15" fill="#064245" cx="29" cy="35.5" rx="5" ry="1"></ellipse>
                    <g id="tree-copy-5" transform="translate(13.000000, 17.000000)">
                        <ellipse id="Oval-2" fill="#D68112" cx="6.5" cy="9.5" rx="6.5" ry="9.5"></ellipse>
                        <path d="M6.48433559,12.8869556 C6.48494777,12.8758755 6.48555964,12.8648091 6.48617119,12.8537567 C6.46988192,12.8586673 6.45355656,12.8635876 6.43719511,12.8685177 C6.45287469,12.8746486 6.46858818,12.8807945 6.48433559,12.8869556 Z M6.43749306,13.7502151 C2.81249769,12.1357061 1,11.2307948 1,11.035481 C1,10.8481893 2.66666667,11.4023834 6,12.6980635 L6,12.2109274 C6.18045661,12.1697613 6.35684264,12.1296449 6.5291581,12.090578 C6.57786615,11.2417607 6.62446799,10.4851783 6.6689636,9.82083076 C3.5563212,8.13320126 2,7.20320632 2,7.03084597 C2,6.85703899 3.58255534,7.41774125 6.74766602,8.71295274 C6.84256091,7.46310087 6.92667223,6.68547957 7,6.38008885 C7.34284472,4.95223141 7.57785849,3.59296891 7.85928616,4.11344968 C7.95802601,4.29606211 8.00480105,6.12624291 7.99961127,9.60399207 C10.6665371,8.37644149 12,7.85348312 12,8.03511696 C12,8.21680137 10.6657945,9.0270818 7.9973836,10.4659582 C7.99589961,10.8781826 7.99378437,11.3104216 7.99103785,11.7626752 C10.6636793,11.1707355 12,10.9233651 12,11.020564 C12,11.1178135 10.6622866,11.5768485 7.98685981,12.3976689 C7.98080875,13.2539594 7.9726678,14.1765107 7.96243697,15.1653228 C9.98747899,14.2535787 11,13.8768434 11,14.035117 C11,14.193608 9.98469389,14.8304493 7.95408167,15.9456406 C7.93110557,18.0237166 7.89950707,20.3751698 7.85928616,23 L6,23 C6.0987501,20.7171045 6.19217716,18.6673139 6.28028119,16.850628 C6.18820146,16.8997839 6.09477439,16.9495746 6,17 L6,16.4645474 C3.33333333,15.0265521 2,14.216742 2,14.035117 C2,13.8460604 3.44467685,14.4203608 6.33403056,15.758018 C6.36942137,15.0491931 6.40390887,14.3799254 6.43749306,13.7502151 Z" id="Combined-Shape" fill="#064245"></path>
                    </g>
                    <g id="tree-copy-2" transform="translate(37.000000, 8.000000)">
                        <ellipse id="Oval-2" fill="#D68112" cx="12.5" cy="19" rx="12.5" ry="19"></ellipse>
                        <path d="M11.7303679,26.6807471 C11.8120381,24.7138991 11.8899486,22.9665721 11.9640996,21.4387662 C5.98803319,18.1918001 3,16.399442 3,16.0616919 C3,15.7218479 6.02519805,16.7860849 12.0755941,19.2544029 C12.2368568,16.2672427 12.3783254,14.4358344 12.5,13.7601777 C13.0142671,10.9044628 13.3667877,8.18593782 13.7889292,9.22689936 C13.940288,9.60013591 14.0102423,13.4146612 13.9987921,20.6704754 C19.9995974,17.8850037 23,16.6849232 23,17.0702339 C23,17.4556363 19.9981694,19.2553177 13.9945082,22.469278 C13.9920111,23.2674587 13.9886623,24.1016395 13.984462,24.9718203 C20.6614873,23.4674233 24,22.8238591 24,23.041128 C24,23.2584781 20.6589879,24.3794071 13.9769637,26.4039151 C13.9668192,28.206595 13.9533242,30.1509142 13.9364787,32.2368727 C19.3121596,29.7610909 22,28.7055446 22,29.0702339 C22,29.4352509 19.3073277,31.0688904 13.921983,33.9711524 C13.8884449,37.8569888 13.8440936,42.199938 13.7889292,47 L11,47 C11.1554461,42.2085475 11.302099,37.9305277 11.4399585,34.1659406 C5.8133195,31.1419076 3,29.4433387 3,29.0702339 C3,28.6957187 5.83463052,29.8190018 11.5038916,32.4400833 C11.5573278,31.0146325 11.6093886,29.6694895 11.6600741,28.4046543 C4.55335803,25.2356079 1,23.4577104 1,23.0709619 C1,22.6829404 4.57678929,23.8862021 11.7303679,26.6807471 Z" id="Combined-Shape" fill="#064245"></path>
                    </g>
                    <ellipse id="Oval-5-Copy" fill-opacity="0.15" fill="#064245" cx="227" cy="67" rx="24" ry="1"></ellipse>
                    <ellipse id="Oval-5-Copy-2" fill-opacity="0.15" fill="#064245" cx="212.5" cy="58" rx="14.5" ry="1"></ellipse>
                    <g id="river" transform="translate(106.000000, 33.000000)">
                        <mask id="mask-6" fill="white">
                            <use xlink:href="#path-5"></use>
                        </mask>
                        <use id="River" fill="#FFEF9B" xlink:href="#path-5"></use>
                    </g>
                </g>
            </g>
        </g>
        <path d="M408.636753,301.990876 C408.323993,302.411335 407.816083,302.812712 407.139651,303.187811 C407.05825,303.233719 406.975563,303.277895 406.89165,303.320284 C403.798184,304.913336 397.618629,306 390.5,306 C384.441074,306 379.062446,305.212785 375.687946,303.996146 C375.625616,303.998707 375.562959,304 375.5,304 C373.014719,304 371,301.985281 371,299.5 C371,297.105928 372.869552,295.148514 375.228349,295.008064 C375.079618,294.528843 375,294.022944 375,293.5 C375,290.462434 377.686292,288 381,288 C381.353914,288 381.700672,288.028089 382.037764,288.081967 C382.504219,282.436381 387.234023,278 393,278 C399.075132,278 404,282.924868 404,289 C404,290.428094 403.727857,291.792626 403.232603,293.044564 C403.483877,293.015159 403.740007,293 404,293 C407.313708,293 410,295.462434 410,298.5 C410,299.82538 409.488574,301.041265 408.636753,301.990876 Z" id="cloud" fill="#FFFFFF"></path>
        <path d="M557.797724,295.38588 C558.567181,295.721338 559,296.099681 559,296.5 C559,297.880712 553.851275,299 547.5,299 C541.148725,299 536,297.880712 536,296.5 C536,296.450566 536.0066,296.401467 536.019619,296.352743 C535.382442,295.576291 535,294.582808 535,293.5 C535,291.014719 537.014719,289 539.5,289 C540.443146,289 541.318524,289.290149 542.041743,289.786055 C542.424586,286.532107 545.393844,284 549,284 C552.865993,284 556,286.910149 556,290.5 C556,290.676086 555.99246,290.850536 555.977662,291.023088 C557.684686,291.189479 559,292.235022 559,293.5 C559,294.252616 558.534402,294.927556 557.797724,295.38588 Z" id="cloud" fill="#FFFFFF" transform="translate(547.000000, 291.500000) scale(-1, 1) translate(-547.000000, -291.500000) "></path>
        <g class="floating-balloon" id="hot-air-balloon" transform="translate(410.000000, 116.000000)">
            <g id="balloon">
                <mask id="mask-8" fill="white">
                    <use xlink:href="#path-7"></use>
                </mask>
                <use fill="#D8D8D8" xlink:href="#path-7"></use>
                <ellipse id="Oval-5-Copy-3" fill="url(#linearGradient-9)" mask="url(#mask-8)" cx="61" cy="75" rx="66" ry="75"></ellipse>
                <ellipse id="Oval-5-Copy-5" fill="url(#linearGradient-10)" mask="url(#mask-8)" cx="62" cy="75" rx="52" ry="75"></ellipse>
                <ellipse id="Oval-5-Copy-4" fill="url(#linearGradient-9)" mask="url(#mask-8)" cx="61.5" cy="75" rx="30.5" ry="75"></ellipse>
                <path d="M41.4965131,169 C63.0819516,169 78,128.257912 78,78 C78,27.7420878 63.0819516,-13 41.4965131,-13 C19.9110745,-13 -9,20.4239771 -9,70.6818894 C-9,120.939802 19.9110745,169 41.4965131,169 Z" id="Oval-3" fill-opacity="0.05" fill="#064245" mask="url(#mask-8)"></path>
            </g>
            <g id="Basket" transform="translate(54.000000, 149.000000)" fill="#0B7787">
                <path d="M11.2146609,4.30822842 C11.6920915,4.58235553 12,5.01420931 12,5.5 C12,6.13136735 11.4798992,6.67162767 10.7435007,6.89292871 L10.7239828,7 L10.4683254,6.95865004 C10.3180998,6.9856826 10.1612793,7 10,7 C8.8954305,7 8,6.32842712 8,5.5 C8,4.67157288 8.8954305,4 10,4 C10.1920672,4 10.377811,4.0203055 10.5536231,4.05821035 L11.3490084,0 L12,0 L11.2146609,4.30822842 Z M14.2924005,8.28608004 C14.5430356,8.46839678 14.7697965,8.75422233 14.9205049,9.10926887 C15.0417759,9.3949655 15.0965979,9.68495034 15.0910052,9.94725721 C16.3823391,12.9713142 16.2978044,15.0766136 14.8374009,16.2631556 C11.9942034,18.5731838 5.02683316,18.5847052 2.16945503,16.2631556 C1.00979503,15.3209603 0.712595288,13.8080301 1.2778558,11.7243649 C0.993996309,11.9255836 0.681016048,11.9941399 0.413903307,11.8807573 C-0.0944774854,11.6649624 -0.244197119,10.8718401 0.0794951465,10.1092689 C0.403187412,9.34669768 1.0777159,8.90344788 1.58609669,9.11924272 C1.80356372,9.21155199 1.95540218,9.40950186 2.03263017,9.66551173 C2.37177282,8.90901637 2.79445292,8.09723991 3.30067049,7.23018236 L3,0 L4,0 L4.875,7 L12.125,7 L13,0 L14,0 L13.6997416,7.2202718 C13.9119818,7.58534883 14.1095348,7.94061825 14.2924005,8.28608004 Z M4,0 L4.65099162,0 L6,6.88290323 L5.27601717,7 L4,0 Z" id="Combined-Shape"></path>
            </g>
        </g>
    </g>
</svg>
