<svg width="192" height="50" viewBox="0 0 192 50" fill="none" xmlns="http://www.w3.org/2000/svg">
<path d="M0.823486 20.8238C0.823486 18.9212 1.71205 17.4786 3.48918 16.4959C5.28721 15.5133 7.7961 15.001 11.0158 14.9592V14.332C11.0158 13.5375 10.9322 12.9208 10.7649 12.4817C10.5977 12.0217 10.2841 11.6872 9.82411 11.4782C9.38506 11.2482 8.73693 11.1332 7.87973 11.1332C6.81345 11.1332 5.85171 11.2691 4.99451 11.5409C4.15821 11.7918 3.33237 12.1054 2.51698 12.4817L1.45071 10.2864C1.78523 10.0146 2.33927 9.69057 3.11284 9.31424C3.88642 8.93791 4.79589 8.60339 5.84126 8.31068C6.90753 8.01798 8.00517 7.87163 9.13417 7.87163C10.7859 7.87163 12.0821 8.09116 13.0229 8.53021C13.9638 8.94836 14.6328 9.62785 15.0301 10.5687C15.4482 11.4886 15.6573 12.7326 15.6573 14.3006V23.709H17.288V25.622C16.8281 25.7265 16.18 25.8311 15.3437 25.9356C14.5074 26.0401 13.7965 26.0924 13.2111 26.0924C12.4375 26.0924 11.9253 25.9774 11.6744 25.7474C11.4235 25.5175 11.2981 25.0575 11.2981 24.3676V23.6149C10.7754 24.2421 10.0645 24.8066 9.16553 25.3084C8.28742 25.8102 7.27341 26.061 6.12351 26.061C4.61818 26.061 3.35328 25.6011 2.32882 24.6812C1.32526 23.7612 0.823486 22.4754 0.823486 20.8238ZM8.44423 23.2699C8.82056 23.2699 9.24916 23.1549 9.73003 22.9249C10.2318 22.6741 10.6604 22.3814 11.0158 22.0468V17.0291C9.34324 17.0291 8.0888 17.3322 7.25251 17.9385C6.43712 18.5448 6.02942 19.308 6.02942 20.2279C6.02942 21.1896 6.2385 21.9423 6.65665 22.4859C7.0957 23.0086 7.69156 23.2699 8.44423 23.2699Z" fill="#F5D76A"/>
<path d="M18.8666 8.59293L24.9507 7.87163H25.0134L25.9229 8.53021V25.4338C25.9229 27.0646 25.5779 28.4654 24.888 29.6362C24.2189 30.8279 23.3826 31.727 22.3791 32.3333C21.3964 32.9605 20.4347 33.295 19.4939 33.3368C18.4485 33.3368 17.8004 33.295 17.5495 33.2114L17.3299 31.267C17.4763 31.2879 17.6958 31.267 17.9885 31.2043C18.3021 31.1624 18.6053 31.0684 18.898 30.922C19.6507 30.5666 20.1943 29.8557 20.5288 28.7895C20.8633 27.7232 21.0306 26.2701 21.0306 24.4303V11.5722L18.8666 10.945V8.59293Z" fill="#F5D76A"/>
<path d="M37.8002 23.709L39.4936 23.3954V11.5095L37.612 10.9137V8.53021L43.1629 7.87163L43.4451 8.02843L44.041 8.96927V10.4432C44.7309 9.75329 45.7136 9.16788 46.9889 8.68701C48.2643 8.18524 49.3724 7.93435 50.3132 7.93435C51.4422 7.93435 52.3517 8.12252 53.0416 8.49885C53.7525 8.87518 54.2856 9.46059 54.641 10.2551C55.3519 9.58603 56.2509 9.03199 57.3381 8.59293C58.4253 8.15388 59.5229 7.93435 60.631 7.93435C62.4918 7.93435 63.8194 8.47794 64.6139 9.56513C65.4083 10.6314 65.8056 12.3772 65.8056 14.8024V23.3954L67.7186 23.709V25.7161H59.3138V23.709L60.7878 23.3954V14.9279C60.7878 13.4016 60.6101 12.3354 60.2547 11.729C59.8992 11.1227 59.2302 10.8196 58.2476 10.8196C57.704 10.8196 57.1499 10.945 56.5854 11.1959C56.0418 11.4468 55.561 11.7395 55.1428 12.074C55.2683 12.7012 55.331 13.6212 55.331 14.8338V23.3954L57.1499 23.709V25.7161H48.6824V23.709L50.2819 23.3954V14.8338C50.2819 13.8093 50.2191 13.0148 50.0937 12.4503C49.9682 11.8858 49.7278 11.4782 49.3724 11.2273C49.0379 10.9555 48.5465 10.8196 47.8984 10.8196C47.2921 10.8196 46.6962 10.9555 46.1108 11.2273C45.5254 11.4991 45.0027 11.8231 44.5428 12.1995V23.3954L46.2676 23.709V25.7161H37.8002V23.709Z" fill="#F5D76A"/>
<path d="M69.3646 20.8238C69.3646 18.9212 70.2531 17.4786 72.0303 16.4959C73.8283 15.5133 76.3372 15.001 79.5569 14.9592V14.332C79.5569 13.5375 79.4733 12.9208 79.306 12.4817C79.1388 12.0217 78.8252 11.6872 78.3652 11.4782C77.9262 11.2482 77.278 11.1332 76.4208 11.1332C75.3545 11.1332 74.3928 11.2691 73.5356 11.5409C72.6993 11.7918 71.8735 12.1054 71.0581 12.4817L69.9918 10.2864C70.3263 10.0146 70.8804 9.69057 71.6539 9.31424C72.4275 8.93791 73.337 8.60339 74.3823 8.31068C75.4486 8.01798 76.5463 7.87163 77.6753 7.87163C79.3269 7.87163 80.6232 8.09116 81.564 8.53021C82.5049 8.94836 83.1739 9.62785 83.5711 10.5687C83.9893 11.4886 84.1984 12.7326 84.1984 14.3006V23.709H85.8291V25.622C85.3692 25.7265 84.721 25.8311 83.8848 25.9356C83.0485 26.0401 82.3376 26.0924 81.7522 26.0924C80.9786 26.0924 80.4664 25.9774 80.2155 25.7474C79.9646 25.5175 79.8392 25.0575 79.8392 24.3676V23.6149C79.3165 24.2421 78.6056 24.8066 77.7066 25.3084C76.8285 25.8102 75.8145 26.061 74.6646 26.061C73.1593 26.061 71.8944 25.6011 70.8699 24.6812C69.8664 23.7612 69.3646 22.4754 69.3646 20.8238ZM76.9853 23.2699C77.3617 23.2699 77.7903 23.1549 78.2711 22.9249C78.7729 22.6741 79.2015 22.3814 79.5569 22.0468V17.0291C77.8843 17.0291 76.6299 17.3322 75.7936 17.9385C74.9782 18.5448 74.5705 19.308 74.5705 20.2279C74.5705 21.1896 74.7796 21.9423 75.1977 22.4859C75.6368 23.0086 76.2327 23.2699 76.9853 23.2699Z" fill="#F5D76A"/>
<path d="M92.9273 25.9983C91.5683 25.9983 90.5543 25.6847 89.8853 25.0575C89.2371 24.4303 88.9131 23.4476 88.9131 22.1096V10.8509H86.9687V9.09471L87.5959 8.84382C88.0977 8.67657 88.5367 8.49885 88.9131 8.31068C89.2894 7.99707 89.6135 7.4953 89.8853 6.80535C90.1152 6.26176 90.4602 5.19548 90.9202 3.60652H93.7427L93.8995 8.27932H98.4782V10.8509H93.9622V19.2871C93.9622 20.4579 93.9936 21.2733 94.0563 21.7332C94.119 22.1932 94.2444 22.4963 94.4326 22.6427C94.6208 22.7681 94.9553 22.8309 95.4362 22.8309C96.3352 22.8309 97.2865 22.6636 98.29 22.3291L98.9486 24.2107C98.3632 24.6916 97.4955 25.1098 96.3456 25.4652C95.2166 25.8206 94.0772 25.9983 92.9273 25.9983Z" fill="#F5D76A"/>
<path d="M102.373 23.3954V11.5095L100.241 10.9137V8.59293L106.388 7.87163H106.45L107.36 8.53021V23.4267L109.335 23.709V25.7161H100.366V23.709L102.373 23.3954Z" fill="#F5D76A"/>
<path d="M113.147 23.3954V3.01066L110.92 2.57161V0.721305L117.099 0H117.161L118.071 0.658583V23.4267L120.172 23.709V25.7161H111.109V23.709L113.147 23.3954Z" fill="#F5D76A"/>
<path d="M123.897 23.3954V3.01066L121.67 2.57161V0.721305L127.848 0H127.911L128.821 0.658583V23.4267L130.922 23.709V25.7161H121.858V23.709L123.897 23.3954Z" fill="#F5D76A"/>
<path d="M132.577 20.8238C132.577 18.9212 133.465 17.4786 135.242 16.4959C137.04 15.5133 139.549 15.001 142.769 14.9592V14.332C142.769 13.5375 142.685 12.9208 142.518 12.4817C142.351 12.0217 142.037 11.6872 141.577 11.4782C141.138 11.2482 140.49 11.1332 139.633 11.1332C138.567 11.1332 137.605 11.2691 136.748 11.5409C135.911 11.7918 135.086 12.1054 134.27 12.4817L133.204 10.2864C133.538 10.0146 134.093 9.69057 134.866 9.31424C135.64 8.93791 136.549 8.60339 137.595 8.31068C138.661 8.01798 139.758 7.87163 140.887 7.87163C142.539 7.87163 143.835 8.09116 144.776 8.53021C145.717 8.94836 146.386 9.62785 146.783 10.5687C147.201 11.4886 147.411 12.7326 147.411 14.3006V23.709H149.041V25.622C148.581 25.7265 147.933 25.8311 147.097 25.9356C146.261 26.0401 145.55 26.0924 144.964 26.0924C144.191 26.0924 143.679 25.9774 143.428 25.7474C143.177 25.5175 143.051 25.0575 143.051 24.3676V23.6149C142.529 24.2421 141.818 24.8066 140.919 25.3084C140.041 25.8102 139.027 26.061 137.877 26.061C136.371 26.061 135.107 25.6011 134.082 24.6812C133.079 23.7612 132.577 22.4754 132.577 20.8238ZM140.197 23.2699C140.574 23.2699 141.002 23.1549 141.483 22.9249C141.985 22.6741 142.414 22.3814 142.769 22.0468V17.0291C141.096 17.0291 139.842 17.3322 139.006 17.9385C138.19 18.5448 137.783 19.308 137.783 20.2279C137.783 21.1896 137.992 21.9423 138.41 22.4859C138.849 23.0086 139.445 23.2699 140.197 23.2699Z" fill="#F5D76A"/>
<path d="M152.596 11.5095L150.714 10.9137V8.53021L156.265 7.87163H156.359L157.174 8.53021V9.69057L157.143 10.4432C157.875 9.75329 158.805 9.16788 159.934 8.68701C161.084 8.18524 162.265 7.93435 163.478 7.93435C164.732 7.93435 165.725 8.16433 166.457 8.6243C167.189 9.06335 167.712 9.78465 168.025 10.7882C168.36 11.7918 168.527 13.1403 168.527 14.8338V23.4267L170.315 23.6776V25.7161H161.879V23.709L163.478 23.4267V14.8338C163.478 13.3285 163.311 12.2831 162.976 11.6977C162.642 11.1123 161.994 10.8196 161.032 10.8196C159.945 10.8196 158.816 11.2795 157.645 12.1995V23.3954L159.401 23.709V25.7161H150.839V23.709L152.596 23.3954V11.5095Z" fill="#F5D76A"/>
<path d="M172.116 17.0604C172.116 15.0742 172.514 13.3912 173.308 12.0113C174.103 10.6105 175.169 9.56513 176.507 8.87518C177.845 8.18524 179.309 7.84027 180.898 7.84027C183.532 7.84027 185.591 8.63475 187.076 10.2237C188.56 11.8127 189.302 14.0184 189.302 16.8409C189.302 18.8689 188.905 20.5833 188.111 21.9841C187.316 23.364 186.25 24.3885 184.912 25.0575C183.574 25.7265 182.1 26.061 180.49 26.061C177.876 26.061 175.827 25.2666 174.343 23.6776C172.859 22.0886 172.116 19.8829 172.116 17.0604ZM180.772 23.9285C181.817 23.9285 182.601 23.3849 183.124 22.2977C183.647 21.1896 183.908 19.4857 183.908 17.1859C183.908 14.7606 183.657 12.9521 183.156 11.7604C182.675 10.5687 181.859 9.97282 180.709 9.97282C179.643 9.97282 178.838 10.5269 178.295 11.635C177.751 12.7221 177.479 14.4156 177.479 16.7154C177.479 19.1198 177.741 20.9283 178.263 22.1409C178.786 23.3326 179.622 23.9285 180.772 23.9285Z" fill="#F5D76A"/>
<path d="M5.59272 44.9143C5.59272 45.3395 5.49516 45.7297 5.30002 46.0851C5.10488 46.4336 4.80521 46.7159 4.401 46.9319C3.99679 47.1479 3.49502 47.256 2.89567 47.256H1.78758V49.8903H0V42.5518H2.89567C3.48108 42.5518 3.97589 42.6529 4.3801 42.855C4.78431 43.0571 5.08746 43.3358 5.28957 43.6913C5.49167 44.0467 5.59272 44.4544 5.59272 44.9143ZM2.75977 45.8343C3.10126 45.8343 3.35563 45.7541 3.52289 45.5938C3.69015 45.4335 3.77378 45.207 3.77378 44.9143C3.77378 44.6216 3.69015 44.3951 3.52289 44.2348C3.35563 44.0746 3.10126 43.9944 2.75977 43.9944H1.78758V45.8343H2.75977Z" fill="#F5D76A"/>
<path d="M16.146 49.8903L14.6197 47.1201H14.1911V49.8903H12.4035V42.5518H15.4038C15.9822 42.5518 16.4735 42.6529 16.8777 42.855C17.2889 43.0571 17.5955 43.3358 17.7977 43.6913C17.9998 44.0397 18.1008 44.43 18.1008 44.8621C18.1008 45.3499 17.9614 45.7855 17.6827 46.1688C17.4109 46.5521 17.0067 46.8239 16.47 46.9842L18.1635 49.8903H16.146ZM14.1911 45.8552H15.2992C15.6268 45.8552 15.8707 45.775 16.031 45.6147C16.1982 45.4544 16.2819 45.2279 16.2819 44.9352C16.2819 44.6565 16.1982 44.437 16.031 44.2767C15.8707 44.1164 15.6268 44.0362 15.2992 44.0362H14.1911V45.8552Z" fill="#F5D76A"/>
<path d="M28.5738 49.9635C27.8838 49.9635 27.2496 49.8032 26.6712 49.4826C26.0997 49.162 25.6433 48.716 25.3018 48.1445C24.9672 47.5661 24.8 46.918 24.8 46.2001C24.8 45.4823 24.9672 44.8377 25.3018 44.2662C25.6433 43.6947 26.0997 43.2487 26.6712 42.9281C27.2496 42.6076 27.8838 42.4473 28.5738 42.4473C29.2637 42.4473 29.8944 42.6076 30.4659 42.9281C31.0443 43.2487 31.4973 43.6947 31.8249 44.2662C32.1594 44.8377 32.3266 45.4823 32.3266 46.2001C32.3266 46.918 32.1594 47.5661 31.8249 48.1445C31.4904 48.716 31.0374 49.162 30.4659 49.4826C29.8944 49.8032 29.2637 49.9635 28.5738 49.9635ZM28.5738 48.3327C29.1592 48.3327 29.6261 48.1376 29.9746 47.7473C30.33 47.357 30.5077 46.8413 30.5077 46.2001C30.5077 45.552 30.33 45.0363 29.9746 44.653C29.6261 44.2627 29.1592 44.0676 28.5738 44.0676C27.9814 44.0676 27.5075 44.2592 27.1521 44.6425C26.8036 45.0258 26.6294 45.545 26.6294 46.2001C26.6294 46.8483 26.8036 47.3675 27.1521 47.7577C27.5075 48.141 27.9814 48.3327 28.5738 48.3327Z" fill="#F5D76A"/>
<path d="M41.9507 42.5518C42.7242 42.5518 43.4002 42.7051 43.9787 43.0118C44.5571 43.3184 45.0031 43.7505 45.3167 44.308C45.6373 44.8586 45.7976 45.4963 45.7976 46.221C45.7976 46.9389 45.6373 47.5765 45.3167 48.1341C45.0031 48.6916 44.5536 49.1237 43.9682 49.4303C43.3898 49.737 42.7173 49.8903 41.9507 49.8903H39.2013V42.5518H41.9507ZM41.8357 48.3431C42.5117 48.3431 43.0378 48.1585 43.4142 47.7891C43.7905 47.4197 43.9787 46.8971 43.9787 46.221C43.9787 45.545 43.7905 45.0189 43.4142 44.6425C43.0378 44.2662 42.5117 44.078 41.8357 44.078H40.9889V48.3431H41.8357Z" fill="#F5D76A"/>
<path d="M54.433 42.5518V46.9424C54.433 47.3814 54.541 47.7194 54.7571 47.9564C54.9731 48.1933 55.2902 48.3118 55.7084 48.3118C56.1265 48.3118 56.4471 48.1933 56.6701 47.9564C56.8931 47.7194 57.0046 47.3814 57.0046 46.9424V42.5518H58.7922V46.9319C58.7922 47.587 58.6528 48.141 58.3741 48.594C58.0953 49.047 57.719 49.3885 57.2451 49.6185C56.7781 49.8485 56.2554 49.9635 55.677 49.9635C55.0986 49.9635 54.5794 49.852 54.1194 49.629C53.6664 49.399 53.3075 49.0575 53.0427 48.6045C52.7779 48.1445 52.6454 47.587 52.6454 46.9319V42.5518H54.433Z" fill="#F5D76A"/>
<path d="M65.6245 46.2106C65.6245 45.4858 65.7813 44.8412 66.0949 44.2767C66.4085 43.7052 66.8441 43.2627 67.4016 42.949C67.9661 42.6285 68.6038 42.4682 69.3147 42.4682C70.1858 42.4682 70.9315 42.6982 71.5517 43.1581C72.172 43.6181 72.5867 44.2453 72.7957 45.0398H70.8304C70.6841 44.7331 70.475 44.4997 70.2032 44.3394C69.9384 44.1791 69.6352 44.0989 69.2938 44.0989C68.7432 44.0989 68.2972 44.2906 67.9557 44.6739C67.6142 45.0572 67.4434 45.5694 67.4434 46.2106C67.4434 46.8518 67.6142 47.364 67.9557 47.7473C68.2972 48.1306 68.7432 48.3222 69.2938 48.3222C69.6352 48.3222 69.9384 48.2421 70.2032 48.0818C70.475 47.9215 70.6841 47.688 70.8304 47.3814H72.7957C72.5867 48.1759 72.172 48.8031 71.5517 49.2631C70.9315 49.7161 70.1858 49.9426 69.3147 49.9426C68.6038 49.9426 67.9661 49.7858 67.4016 49.4721C66.8441 49.1516 66.4085 48.709 66.0949 48.1445C65.7813 47.58 65.6245 46.9354 65.6245 46.2106Z" fill="#F5D76A"/>
<path d="M85.0497 42.5518V43.984H83.1054V49.8903H81.3178V43.984H79.3734V42.5518H85.0497Z" fill="#F5D76A"/>
<path d="M102.672 42.5518C103.445 42.5518 104.121 42.7051 104.7 43.0118C105.278 43.3184 105.724 43.7505 106.038 44.308C106.359 44.8586 106.519 45.4963 106.519 46.221C106.519 46.9389 106.359 47.5765 106.038 48.1341C105.724 48.6916 105.275 49.1237 104.689 49.4303C104.111 49.737 103.438 49.8903 102.672 49.8903H99.9226V42.5518H102.672ZM102.557 48.3431C103.233 48.3431 103.759 48.1585 104.135 47.7891C104.512 47.4197 104.7 46.8971 104.7 46.221C104.7 45.545 104.512 45.0189 104.135 44.6425C103.759 44.2662 103.233 44.078 102.557 44.078H101.71V48.3431H102.557Z" fill="#F5D76A"/>
<path d="M115.186 43.984V45.4684H117.58V46.8483H115.186V48.4581H117.893V49.8903H113.398V42.5518H117.893V43.984H115.186Z" fill="#F5D76A"/>
<path d="M127.589 49.9635C127.052 49.9635 126.572 49.8764 126.146 49.7021C125.721 49.5279 125.38 49.27 125.122 48.9286C124.871 48.5871 124.739 48.1759 124.725 47.695H126.627C126.655 47.9668 126.749 48.1759 126.91 48.3222C127.07 48.4616 127.279 48.5313 127.537 48.5313C127.802 48.5313 128.011 48.4721 128.164 48.3536C128.317 48.2282 128.394 48.0574 128.394 47.8414C128.394 47.6602 128.331 47.5103 128.206 47.3919C128.087 47.2734 127.938 47.1758 127.756 47.0992C127.582 47.0225 127.331 46.9354 127.004 46.8378C126.53 46.6915 126.143 46.5451 125.843 46.3988C125.544 46.2524 125.286 46.0364 125.07 45.7506C124.854 45.4649 124.746 45.092 124.746 44.6321C124.746 43.9491 124.993 43.416 125.488 43.0327C125.983 42.6424 126.627 42.4473 127.422 42.4473C128.23 42.4473 128.882 42.6424 129.377 43.0327C129.871 43.416 130.136 43.9526 130.171 44.6425H128.237C128.223 44.4056 128.136 44.2209 127.976 44.0885C127.816 43.9491 127.61 43.8794 127.359 43.8794C127.143 43.8794 126.969 43.9387 126.836 44.0571C126.704 44.1686 126.638 44.3324 126.638 44.5485C126.638 44.7854 126.749 44.9701 126.972 45.1025C127.195 45.2349 127.544 45.3778 128.018 45.5311C128.492 45.6914 128.875 45.8447 129.168 45.9911C129.467 46.1374 129.725 46.35 129.941 46.6287C130.157 46.9075 130.265 47.2664 130.265 47.7055C130.265 48.1236 130.157 48.5034 129.941 48.8449C129.732 49.1864 129.425 49.4582 129.021 49.6603C128.617 49.8624 128.14 49.9635 127.589 49.9635Z" fill="#F5D76A"/>
<path d="M139.033 42.5518V49.8903H137.246V42.5518H139.033Z" fill="#F5D76A"/>
<path d="M151.08 44.8725C150.948 44.6286 150.756 44.4439 150.505 44.3185C150.261 44.1861 149.972 44.1199 149.638 44.1199C149.059 44.1199 148.596 44.3115 148.247 44.6948C147.899 45.0711 147.725 45.5764 147.725 46.2106C147.725 46.8866 147.906 47.4163 148.268 47.7996C148.637 48.1759 149.143 48.3641 149.784 48.3641C150.223 48.3641 150.592 48.2525 150.892 48.0295C151.199 47.8065 151.422 47.4859 151.561 47.0678H149.293V45.7506H153.181V47.4128C153.049 47.8588 152.822 48.2735 152.502 48.6568C152.188 49.0401 151.788 49.3502 151.3 49.5871C150.812 49.8241 150.261 49.9426 149.648 49.9426C148.923 49.9426 148.275 49.7858 147.704 49.4721C147.139 49.1516 146.697 48.709 146.376 48.1445C146.062 47.58 145.906 46.9354 145.906 46.2106C145.906 45.4858 146.062 44.8412 146.376 44.2767C146.697 43.7052 147.139 43.2627 147.704 42.949C148.268 42.6285 148.913 42.4682 149.638 42.4682C150.516 42.4682 151.254 42.6807 151.854 43.1058C152.46 43.531 152.861 44.1199 153.056 44.8725H151.08Z" fill="#F5D76A"/>
<path d="M166.617 49.8903H164.829L161.839 45.3638V49.8903H160.052V42.5518H161.839L164.829 47.0992V42.5518H166.617V49.8903Z" fill="#F5D76A"/>
<path d="M175.58 43.984V45.4684H177.974V46.8483H175.58V48.4581H178.288V49.8903H173.793V42.5518H178.288V43.984H175.58Z" fill="#F5D76A"/>
<path d="M189.071 49.8903L187.545 47.1201H187.116V49.8903H185.328V42.5518H188.329C188.907 42.5518 189.398 42.6529 189.803 42.855C190.214 43.0571 190.52 43.3358 190.722 43.6913C190.925 44.0397 191.026 44.43 191.026 44.8621C191.026 45.3499 190.886 45.7855 190.608 46.1688C190.336 46.5521 189.932 46.8239 189.395 46.9842L191.088 49.8903H189.071ZM187.116 45.8552H188.224C188.552 45.8552 188.796 45.775 188.956 45.6147C189.123 45.4544 189.207 45.2279 189.207 44.9352C189.207 44.6565 189.123 44.437 188.956 44.2767C188.796 44.1164 188.552 44.0362 188.224 44.0362H187.116V45.8552Z" fill="#F5D76A"/>
<path d="M20.0311 4.97075C20.5329 5.45162 21.1601 5.69206 21.9128 5.69206H21.9441C22.9268 5.69206 23.6795 5.42026 24.2021 4.87667C24.7248 4.31217 24.9862 3.60132 24.9862 2.74412C24.9862 2.01236 24.7457 1.4165 24.2649 0.956534C23.784 0.475664 23.115 0.235229 22.2578 0.235229C21.3378 0.235229 20.6165 0.51748 20.0938 1.08198C19.5712 1.64648 19.3098 2.34688 19.3098 3.18317C19.3098 3.89402 19.5502 4.48988 20.0311 4.97075Z" fill="#F5D76A"/>
<path d="M102.354 4.97075C102.856 5.45162 103.483 5.69206 104.236 5.69206H104.267C105.25 5.69206 106.002 5.42026 106.525 4.87667C107.048 4.31217 107.309 3.60132 107.309 2.74412C107.309 2.01236 107.069 1.4165 106.588 0.956534C106.107 0.475664 105.438 0.235229 104.581 0.235229C103.661 0.235229 102.94 0.51748 102.417 1.08198C101.894 1.64648 101.633 2.34688 101.633 3.18317C101.633 3.89402 101.873 4.48988 102.354 4.97075Z" fill="#F5D76A"/>
</svg>
